<?plantuml 1.2026.2?><svg xmlns="http://www.w3.org/2000/svg" xmlns:xlink="http://www.w3.org/1999/xlink" contentStyleType="text/css" data-diagram-type="ACTIVITY" height="550px" preserveAspectRatio="none" style="width:580px;height:550px;" version="1.1" viewBox="0 0 580 550" width="580px" zoomAndPan="magnify"><title>Order Fulfillment With Compensation Path</title><defs/><g><g class="title" data-source-line="1"><text fill="#1F2937" font-family="Helvetica" font-size="14" font-weight="bold" lengthAdjust="spacing" textLength="282.3379" x="147.7715" y="30.7803">Order Fulfillment With Compensation Path</text></g><ellipse cx="348.2126" cy="55" fill="#222222" rx="10" ry="10" style="stroke:#222222;stroke-width:1;"/><rect fill="#F8FAFC" height="32" rx="12.5" ry="12.5" style="stroke:#181818;stroke-width:0.5;" width="120.7227" x="287.8513" y="85"/><text fill="#1F2937" font-family="Helvetica" font-size="12" lengthAdjust="spacing" textLength="100.7227" x="297.8513" y="104.2402">Receive paid order</text><rect fill="#F8FAFC" height="32" rx="12.5" ry="12.5" style="stroke:#181818;stroke-width:0.5;" width="116.709" x="289.8582" y="137"/><text fill="#1F2937" font-family="Helvetica" font-size="12" lengthAdjust="spacing" textLength="96.709" x="299.8582" y="156.2402">Reserve inventory</text><polygon fill="#F8FAFC" points="299.6042,189,396.821,189,408.821,201,396.821,213,299.6042,213,287.6042,201,299.6042,189" style="stroke:#181818;stroke-width:0.5;"/><text fill="#1F2937" font-family="Helvetica" font-size="11" lengthAdjust="spacing" textLength="97.2168" x="299.6042" y="203.9702">Inventory reserved?</text><text fill="#1F2937" font-family="Helvetica" font-size="11" lengthAdjust="spacing" textLength="17.1177" x="270.4866" y="198.4702">yes</text><text fill="#1F2937" font-family="Helvetica" font-size="11" lengthAdjust="spacing" textLength="12.2354" x="408.821" y="198.4702">no</text><rect fill="#F8FAFC" height="32" rx="12.5" ry="12.5" style="stroke:#181818;stroke-width:0.5;" width="108.043" x="149.8882" y="223"/><text fill="#1F2937" font-family="Helvetica" font-size="12" lengthAdjust="spacing" textLength="88.043" x="159.8882" y="242.2402">Create shipment</text><rect fill="#F8FAFC" height="32" rx="12.5" ry="12.5" style="stroke:#181818;stroke-width:0.5;" width="140.0527" x="133.8833" y="275"/><text fill="#1F2937" font-family="Helvetica" font-size="12" lengthAdjust="spacing" textLength="120.0527" x="143.8833" y="294.2402">Request carrier pickup</text><polygon fill="#F8FAFC" points="158.6663,327,249.1531,327,261.1531,339,249.1531,351,158.6663,351,146.6663,339,158.6663,327" style="stroke:#181818;stroke-width:0.5;"/><text fill="#1F2937" font-family="Helvetica" font-size="11" lengthAdjust="spacing" textLength="90.4868" x="158.6663" y="341.9702">Pickup confirmed?</text><text fill="#1F2937" font-family="Helvetica" font-size="11" lengthAdjust="spacing" textLength="17.1177" x="129.5486" y="336.4702">yes</text><text fill="#1F2937" font-family="Helvetica" font-size="11" lengthAdjust="spacing" textLength="12.2354" x="261.1531" y="336.4702">no</text><rect fill="#F8FAFC" height="32" rx="12.5" ry="12.5" style="stroke:#181818;stroke-width:0.5;" width="188.7441" x="11" y="361"/><text fill="#1F2937" font-family="Helvetica" font-size="12" lengthAdjust="spacing" textLength="168.7441" x="21" y="380.2402">Mark order as ready to dispatch</text><ellipse cx="105.3721" cy="424" fill="none" rx="11" ry="11" style="stroke:#222222;stroke-width:1;"/><ellipse cx="105.3721" cy="424" fill="#222222" rx="6" ry="6" style="stroke:#222222;stroke-width:1;"/><rect fill="#F8FAFC" height="32" rx="12.5" ry="12.5" style="stroke:#181818;stroke-width:0.5;" width="152.7383" x="226.0781" y="361"/><text fill="#1F2937" font-family="Helvetica" font-size="12" lengthAdjust="spacing" textLength="132.7383" x="236.0781" y="380.2402">Cancel shipment request</text><rect fill="#F8FAFC" height="32" rx="12.5" ry="12.5" style="stroke:#181818;stroke-width:0.5;" width="116.0527" x="244.4209" y="413"/><text fill="#1F2937" font-family="Helvetica" font-size="12" lengthAdjust="spacing" textLength="96.0527" x="254.4209" y="432.2402">Release inventory</text><rect fill="#F8FAFC" height="32" rx="12.5" ry="12.5" style="stroke:#181818;stroke-width:0.5;" width="165.4063" x="219.7441" y="465"/><text fill="#1F2937" font-family="Helvetica" font-size="12" lengthAdjust="spacing" textLength="145.4063" x="229.7441" y="484.2402">Create compensation ticket</text><ellipse cx="302.4473" cy="528" fill="none" rx="11" ry="11" style="stroke:#222222;stroke-width:1;"/><ellipse cx="302.4473" cy="528" fill="#222222" rx="6" ry="6" style="stroke:#222222;stroke-width:1;"/><rect fill="#F8FAFC" height="32" rx="12.5" ry="12.5" style="stroke:#181818;stroke-width:0.5;" width="154.7305" x="415.1504" y="223"/><text fill="#1F2937" font-family="Helvetica" font-size="12" lengthAdjust="spacing" textLength="134.7305" x="425.1504" y="242.2402">Create out-of-stock event</text><rect fill="#F8FAFC" height="32" rx="12.5" ry="12.5" style="stroke:#181818;stroke-width:0.5;" width="145.3789" x="419.8262" y="275"/><text fill="#1F2937" font-family="Helvetica" font-size="12" lengthAdjust="spacing" textLength="125.3789" x="429.8262" y="294.2402">Trigger refund workflow</text><ellipse cx="492.5156" cy="338" fill="none" rx="11" ry="11" style="stroke:#222222;stroke-width:1;"/><ellipse cx="492.5156" cy="338" fill="#222222" rx="6" ry="6" style="stroke:#222222;stroke-width:1;"/><line style="stroke:#181818;stroke-width:1;" x1="348.2126" x2="348.2126" y1="65" y2="85"/><polygon fill="#181818" points="344.2126,75,348.2126,85,352.2126,75,348.2126,79" style="stroke:#181818;stroke-width:1;"/><line style="stroke:#181818;stroke-width:1;" x1="348.2126" x2="348.2126" y1="117" y2="137"/><polygon fill="#181818" points="344.2126,127,348.2126,137,352.2126,127,348.2126,131" style="stroke:#181818;stroke-width:1;"/><line style="stroke:#181818;stroke-width:1;" x1="203.9097" x2="203.9097" y1="255" y2="275"/><polygon fill="#181818" points="199.9097,265,203.9097,275,207.9097,265,203.9097,269" style="stroke:#181818;stroke-width:1;"/><line style="stroke:#181818;stroke-width:1;" x1="105.3721" x2="105.3721" y1="393" y2="413"/><polygon fill="#181818" points="101.3721,403,105.3721,413,109.3721,403,105.3721,407" style="stroke:#181818;stroke-width:1;"/><line style="stroke:#181818;stroke-width:1;" x1="302.4473" x2="302.4473" y1="393" y2="413"/><polygon fill="#181818" points="298.4473,403,302.4473,413,306.4473,403,302.4473,407" style="stroke:#181818;stroke-width:1;"/><line style="stroke:#181818;stroke-width:1;" x1="302.4473" x2="302.4473" y1="445" y2="465"/><polygon fill="#181818" points="298.4473,455,302.4473,465,306.4473,455,302.4473,459" style="stroke:#181818;stroke-width:1;"/><line style="stroke:#181818;stroke-width:1;" x1="302.4473" x2="302.4473" y1="497" y2="517"/><polygon fill="#181818" points="298.4473,507,302.4473,517,306.4473,507,302.4473,511" style="stroke:#181818;stroke-width:1;"/><line style="stroke:#181818;stroke-width:1;" x1="146.6663" x2="105.3721" y1="339" y2="339"/><line style="stroke:#181818;stroke-width:1;" x1="105.3721" x2="105.3721" y1="339" y2="361"/><polygon fill="#181818" points="101.3721,351,105.3721,361,109.3721,351,105.3721,355" style="stroke:#181818;stroke-width:1;"/><line style="stroke:#181818;stroke-width:1;" x1="261.1531" x2="302.4473" y1="339" y2="339"/><line style="stroke:#181818;stroke-width:1;" x1="302.4473" x2="302.4473" y1="339" y2="361"/><polygon fill="#181818" points="298.4473,351,302.4473,361,306.4473,351,302.4473,355" style="stroke:#181818;stroke-width:1;"/><line style="stroke:#181818;stroke-width:1;" x1="203.9097" x2="203.9097" y1="307" y2="327"/><polygon fill="#181818" points="199.9097,317,203.9097,327,207.9097,317,203.9097,321" style="stroke:#181818;stroke-width:1;"/><line style="stroke:#181818;stroke-width:1;" x1="492.5156" x2="492.5156" y1="255" y2="275"/><polygon fill="#181818" points="488.5156,265,492.5156,275,496.5156,265,492.5156,269" style="stroke:#181818;stroke-width:1;"/><line style="stroke:#181818;stroke-width:1;" x1="492.5156" x2="492.5156" y1="307" y2="327"/><polygon fill="#181818" points="488.5156,317,492.5156,327,496.5156,317,492.5156,321" style="stroke:#181818;stroke-width:1;"/><line style="stroke:#181818;stroke-width:1;" x1="287.6042" x2="203.9097" y1="201" y2="201"/><line style="stroke:#181818;stroke-width:1;" x1="203.9097" x2="203.9097" y1="201" y2="223"/><polygon fill="#181818" points="199.9097,213,203.9097,223,207.9097,213,203.9097,217" style="stroke:#181818;stroke-width:1;"/><line style="stroke:#181818;stroke-width:1;" x1="408.821" x2="492.5156" y1="201" y2="201"/><line style="stroke:#181818;stroke-width:1;" x1="492.5156" x2="492.5156" y1="201" y2="223"/><polygon fill="#181818" points="488.5156,213,492.5156,223,496.5156,213,492.5156,217" style="stroke:#181818;stroke-width:1;"/><line style="stroke:#181818;stroke-width:1;" x1="348.2126" x2="348.2126" y1="169" y2="189"/><polygon fill="#181818" points="344.2126,179,348.2126,189,352.2126,179,348.2126,183" style="stroke:#181818;stroke-width:1;"/></g></svg>