<?plantuml 1.2026.2?><svg xmlns="http://www.w3.org/2000/svg" xmlns:xlink="http://www.w3.org/1999/xlink" contentStyleType="text/css" data-diagram-type="DESCRIPTION" height="600px" preserveAspectRatio="none" style="width:1192px;height:600px;background:#FFFFFF;" version="1.1" viewBox="0 0 1192 600" width="1192px" zoomAndPan="magnify"><title>Platform Service Boundaries</title><defs/><g><g class="title" data-source-line="1"><text fill="#000000" font-family="Verdana" font-size="22" font-weight="bold" lengthAdjust="spacing" textLength="351.957" x="415.5259" y="37.1182">Platform Service Boundaries</text></g><!--cluster Client Channels--><g class="cluster" data-qualified-name="Client Channels" data-source-line="6" id="ent0002"><rect fill="#FFFFFF" height="182" rx="2.5" ry="2.5" style="stroke:#000000;stroke-width:1;" width="176.64" x="12" y="104.7373"/><text fill="#000000" font-family="Verdana" font-size="14" font-weight="bold" lengthAdjust="spacing" textLength="121.9258" x="39.3571" y="120.8125">Client Channels</text></g><!--cluster Core Platform--><g class="cluster" data-qualified-name="Core Platform" data-source-line="11" id="ent0005"><path d="M224.14,58.7373 L333.9955,58.7373 A3.75,3.75 0 0 1 336.4955,61.2373 L343.4955,81.752 L944.85,81.752 A2.5,2.5 0 0 1 947.35,84.252 L947.35,320.2373 A2.5,2.5 0 0 1 944.85,322.7373 L224.14,322.7373 A2.5,2.5 0 0 1 221.64,320.2373 L221.64,61.2373 A2.5,2.5 0 0 1 224.14,58.7373" fill="#FFFFFF" style="stroke:#000000;stroke-width:1;"/><line style="stroke:#000000;stroke-width:1;" x1="221.64" x2="343.4955" y1="81.752" y2="81.752"/><text fill="#000000" font-family="Verdana" font-size="14" font-weight="bold" lengthAdjust="spacing" textLength="108.8555" x="225.64" y="74.8125">Core Platform</text></g><!--cluster External Providers--><g class="cluster" data-qualified-name="External Providers" data-source-line="19" id="ent0011"><path d="M996.2164,346.3166 C999.6597,338.9872 1005.0099,339.8327 1009.3075,345.453 C1012.7062,338.1062 1019.273,338.9059 1023.6388,344.3713 C1026.8858,337.2195 1033.4196,337.777 1037.5229,343.4439 C1041.0264,335.578 1048.3881,335.4039 1052.6309,342.7076 C1056.718,336.2015 1061.3964,336.5906 1065.9805,342.1579 C1070.7908,335.3486 1074.7211,337.1565 1079.0815,342.6375 C1083.5449,336.3355 1088.4783,336.2587 1093.6056,341.8251 C1098.2678,334.4809 1104.8943,335.5133 1108.2111,343.1379 C1111.3098,337.8314 1117.6806,336.9703 1121.0166,342.8666 C1125.0721,336.1012 1131.9261,337.6344 1135.0871,343.8372 C1139.8764,338.7199 1145.5795,338.5469 1147.9964,346.2299 C1158.1057,337.148 1164.4227,339.222 1168.82,351.7373 C1169.4928,350.8071 1170.2224,351.1025 1170.6642,351.9738 C1176.5164,356.1003 1176.964,361.3668 1170.2029,365.0482 C1177.022,367.3941 1177.2141,373.2963 1171.7606,377.2137 C1179.6207,380.1682 1180.4558,386.7583 1174.2593,392.0761 C1179.403,395.102 1180.2873,399.1828 1175.3368,403.1876 C1181.3131,405.3504 1182.1198,411.0672 1177.5201,415.1588 C1185.0088,418.9049 1184.2769,425.8036 1177.4823,429.512 C1182.6583,434.273 1181.2695,438.6429 1175.5404,441.6608 C1181.3276,445.7469 1180.7972,449.2771 1175.5615,453.383 C1181.3377,458.7518 1180.6646,463.0704 1174.5835,467.625 C1179.4942,472.3036 1178.9468,476.4145 1173.146,479.8317 C1178.0367,484.1636 1178.1139,490.7393 1170.5421,492.5122 C1176.792,502.7763 1173.8615,509.2269 1161.82,510.7373 C1162.6517,509.756 1163.526,510.0901 1163.9827,511.1372 C1160.5067,518.0031 1155.0605,519.0643 1149.6407,513.3539 C1145.331,520.7335 1141.1338,520.9012 1136.1412,513.9993 C1132.2265,520.8396 1124.4872,520.6842 1120.4951,514.0896 C1116.8437,520.2955 1110.976,520.106 1107.4536,513.9535 C1104.4898,520.9137 1098.1666,520.8186 1093.8526,515.4421 C1090.4421,522.611 1083.6613,524.1692 1079.1189,516.5714 C1075.1433,522.0919 1069.1837,522.2455 1065.7104,515.999 C1060.4639,521.2692 1055.0663,520.823 1051.4459,514.0698 C1048.4928,521.284 1042.3607,521.6894 1038.3612,515.0587 C1033.2461,522.0767 1027.883,520.8685 1024.617,513.3146 C1020.1048,519.2088 1014.3392,519.8591 1010.784,512.3285 C999.9225,520.7731 990.6491,517.6514 988.35,503.7373 C989.1435,503.6058 989.365,504.248 989.1221,504.8413 C982.2579,500.3022 983.8853,494.8994 990.0428,491.2418 C984.851,487.5178 983.4379,483.5966 989.195,479.1077 C981.7718,475.0728 983.315,470.2097 988.7607,465.7562 C982.7236,462.595 982.3475,458.0673 987.3675,453.6351 C980.9186,450.2688 980.9496,445.2747 987.1161,441.644 C981.5827,438.1152 980.4425,432.9125 987.0006,429.2708 C981.6954,424.3146 981.6753,419.8838 988.6665,416.5362 C981.6552,413.9148 981.5146,408.2923 986.9295,403.9552 C980.7265,398.9709 980.4833,394.3704 988.1643,390.6772 C982.3216,387.243 982.9526,381.5072 989.0232,378.9452 C983.3987,375.601 982.9857,369.784 988.4508,365.9514 C980.2521,356.9816 984.0269,347.3582 995.35,344.7373 C996.4506,344.8518 996.6758,345.3463 996.2164,346.3166" fill="#FFFFFF" style="stroke:#000000;stroke-width:1;"/><text fill="#000000" font-family="Verdana" font-size="14" font-weight="bold" lengthAdjust="spacing" textLength="145.5234" x="1005.8233" y="363.8125">External Providers</text></g><!--cluster Operational Data--><g class="cluster" data-qualified-name="Operational Data" data-source-line="24" id="ent0014"><path d="M769.32,356.7373 C769.32,346.7373 843.82,346.7373 843.82,346.7373 C843.82,346.7373 918.32,346.7373 918.32,356.7373 L918.32,522.7373 C918.32,532.7373 843.82,532.7373 843.82,532.7373 C843.82,532.7373 769.32,532.7373 769.32,522.7373 L769.32,356.7373" fill="#FFFFFF" style="stroke:#000000;stroke-width:1;"/><path d="M769.32,356.7373 C769.32,366.7373 843.82,366.7373 843.82,366.7373 C843.82,366.7373 918.32,366.7373 918.32,356.7373" fill="none" style="stroke:#000000;stroke-width:1;"/><text fill="#000000" font-family="Verdana" font-size="14" font-weight="bold" lengthAdjust="spacing" textLength="133.6699" x="776.985" y="382.8125">Operational Data</text></g><!--entity Web--><g class="entity" data-qualified-name="Client Channels.Web" data-source-line="7" id="ent0003"><rect fill="#FFFFFF" height="47.0146" rx="2.5" ry="2.5" style="stroke:#000000;stroke-width:1;" width="102.8428" x="48.9" y="141.2273"/><rect fill="#FFFFFF" height="10" style="stroke:#000000;stroke-width:1;" width="15" x="131.7428" y="146.2273"/><rect fill="#FFFFFF" height="2" style="stroke:#000000;stroke-width:1;" width="4" x="129.7428" y="148.2273"/><rect fill="#FFFFFF" height="2" style="stroke:#000000;stroke-width:1;" width="4" x="129.7428" y="152.2273"/><text fill="#000000" font-family="Verdana" font-size="14" lengthAdjust="spacing" textLength="62.8428" x="63.9" y="175.3025">Web App</text></g><!--entity Admin--><g class="entity" data-qualified-name="Client Channels.Admin" data-source-line="8" id="ent0004"><rect fill="#FFFFFF" height="47.0146" rx="2.5" ry="2.5" style="stroke:#000000;stroke-width:1;" width="144.6377" x="28" y="223.2273"/><rect fill="#FFFFFF" height="10" style="stroke:#000000;stroke-width:1;" width="15" x="152.6377" y="228.2273"/><rect fill="#FFFFFF" height="2" style="stroke:#000000;stroke-width:1;" width="4" x="150.6377" y="230.2273"/><rect fill="#FFFFFF" height="2" style="stroke:#000000;stroke-width:1;" width="4" x="150.6377" y="234.2273"/><text fill="#000000" font-family="Verdana" font-size="14" lengthAdjust="spacing" textLength="104.6377" x="43" y="257.3025">Admin Console</text></g><!--entity Gateway--><g class="entity" data-qualified-name="Core Platform.Gateway" data-source-line="12" id="ent0006"><rect fill="#FFFFFF" height="47.0146" rx="2.5" ry="2.5" style="stroke:#000000;stroke-width:1;" width="130.0977" x="237.64" y="177.2273"/><rect fill="#FFFFFF" height="10" style="stroke:#000000;stroke-width:1;" width="15" x="347.7377" y="182.2273"/><rect fill="#FFFFFF" height="2" style="stroke:#000000;stroke-width:1;" width="4" x="345.7377" y="184.2273"/><rect fill="#FFFFFF" height="2" style="stroke:#000000;stroke-width:1;" width="4" x="345.7377" y="188.2273"/><text fill="#000000" font-family="Verdana" font-size="14" lengthAdjust="spacing" textLength="90.0977" x="252.64" y="211.3025">API Gateway</text></g><!--entity Identity--><g class="entity" data-qualified-name="Core Platform.Identity" data-source-line="13" id="ent0007"><rect fill="#FFFFFF" height="47.0146" rx="2.5" ry="2.5" style="stroke:#000000;stroke-width:1;" width="151.542" x="428.74" y="259.2273"/><rect fill="#FFFFFF" height="10" style="stroke:#000000;stroke-width:1;" width="15" x="560.282" y="264.2273"/><rect fill="#FFFFFF" height="2" style="stroke:#000000;stroke-width:1;" width="4" x="558.282" y="266.2273"/><rect fill="#FFFFFF" height="2" style="stroke:#000000;stroke-width:1;" width="4" x="558.282" y="270.2273"/><text fill="#000000" font-family="Verdana" font-size="14" lengthAdjust="spacing" textLength="111.542" x="443.74" y="293.3025">Identity Service</text></g><!--entity Orders--><g class="entity" data-qualified-name="Core Platform.Orders" data-source-line="14" id="ent0008"><rect fill="#FFFFFF" height="47.0146" rx="2.5" ry="2.5" style="stroke:#000000;stroke-width:1;" width="136.5986" x="436.21" y="95.2273"/><rect fill="#FFFFFF" height="10" style="stroke:#000000;stroke-width:1;" width="15" x="552.8086" y="100.2273"/><rect fill="#FFFFFF" height="2" style="stroke:#000000;stroke-width:1;" width="4" x="550.8086" y="102.2273"/><rect fill="#FFFFFF" height="2" style="stroke:#000000;stroke-width:1;" width="4" x="550.8086" y="106.2273"/><text fill="#000000" font-family="Verdana" font-size="14" lengthAdjust="spacing" textLength="96.5986" x="451.21" y="129.3025">Order Service</text></g><!--entity Billing--><g class="entity" data-qualified-name="Core Platform.Billing" data-source-line="15" id="ent0009"><rect fill="#FFFFFF" height="47.0146" rx="2.5" ry="2.5" style="stroke:#000000;stroke-width:1;" width="139.1143" x="434.95" y="177.2273"/><rect fill="#FFFFFF" height="10" style="stroke:#000000;stroke-width:1;" width="15" x="554.0643" y="182.2273"/><rect fill="#FFFFFF" height="2" style="stroke:#000000;stroke-width:1;" width="4" x="552.0643" y="184.2273"/><rect fill="#FFFFFF" height="2" style="stroke:#000000;stroke-width:1;" width="4" x="552.0643" y="188.2273"/><text fill="#000000" font-family="Verdana" font-size="14" lengthAdjust="spacing" textLength="99.1143" x="449.95" y="211.3025">Billing Service</text></g><!--entity Notify--><g class="entity" data-qualified-name="Core Platform.Notify" data-source-line="16" id="ent0010"><rect fill="#FFFFFF" height="47.0146" rx="2.5" ry="2.5" style="stroke:#000000;stroke-width:1;" width="176.0762" x="755.28" y="177.2273"/><rect fill="#FFFFFF" height="10" style="stroke:#000000;stroke-width:1;" width="15" x="911.3562" y="182.2273"/><rect fill="#FFFFFF" height="2" style="stroke:#000000;stroke-width:1;" width="4" x="909.3562" y="184.2273"/><rect fill="#FFFFFF" height="2" style="stroke:#000000;stroke-width:1;" width="4" x="909.3562" y="188.2273"/><text fill="#000000" font-family="Verdana" font-size="14" lengthAdjust="spacing" textLength="136.0762" x="770.28" y="211.3025">Notification Service</text></g><!--entity Email--><g class="entity" data-qualified-name="External Providers.Email" data-source-line="20" id="ent0012"><rect fill="#FFFFFF" height="47.0146" rx="2.5" ry="2.5" style="stroke:#000000;stroke-width:1;" width="141.5615" x="1007.81" y="373.2273"/><rect fill="#FFFFFF" height="10" style="stroke:#000000;stroke-width:1;" width="15" x="1129.3715" y="378.2273"/><rect fill="#FFFFFF" height="2" style="stroke:#000000;stroke-width:1;" width="4" x="1127.3715" y="380.2273"/><rect fill="#FFFFFF" height="2" style="stroke:#000000;stroke-width:1;" width="4" x="1127.3715" y="384.2273"/><text fill="#000000" font-family="Verdana" font-size="14" lengthAdjust="spacing" textLength="101.5615" x="1022.81" y="407.3025">Email Provider</text></g><!--entity Payment--><g class="entity" data-qualified-name="External Providers.Payment" data-source-line="21" id="ent0013"><rect fill="#FFFFFF" height="47.0146" rx="2.5" ry="2.5" style="stroke:#000000;stroke-width:1;" width="164.4688" x="996.35" y="455.2273"/><rect fill="#FFFFFF" height="10" style="stroke:#000000;stroke-width:1;" width="15" x="1140.8188" y="460.2273"/><rect fill="#FFFFFF" height="2" style="stroke:#000000;stroke-width:1;" width="4" x="1138.8188" y="462.2273"/><rect fill="#FFFFFF" height="2" style="stroke:#000000;stroke-width:1;" width="4" x="1138.8188" y="466.2273"/><text fill="#000000" font-family="Verdana" font-size="14" lengthAdjust="spacing" textLength="124.4688" x="1011.35" y="489.3025">Payment Provider</text></g><!--entity Postgres--><g class="entity" data-qualified-name="Operational Data.Postgres" data-source-line="25" id="ent0015"><path d="M792.73,480.7273 C792.73,470.7273 843.315,470.7273 843.315,470.7273 C843.315,470.7273 893.8999,470.7273 893.8999,480.7273 L893.8999,506.742 C893.8999,516.742 843.315,516.742 843.315,516.742 C843.315,516.742 792.73,516.742 792.73,506.742 L792.73,480.7273" fill="#FFFFFF" style="stroke:#000000;stroke-width:1;"/><path d="M792.73,480.7273 C792.73,490.7273 843.315,490.7273 843.315,490.7273 C843.315,490.7273 893.8999,490.7273 893.8999,480.7273" fill="none" style="stroke:#000000;stroke-width:1;"/><text fill="#000000" font-family="Verdana" font-size="14" lengthAdjust="spacing" textLength="81.1699" x="802.73" y="508.8025">PostgreSQL</text></g><!--entity Redis--><g class="entity" data-qualified-name="Operational Data.Redis" data-source-line="26" id="ent0016"><rect fill="#FFFFFF" height="33.0146" rx="2.5" ry="2.5" style="stroke:#000000;stroke-width:1;" width="101.5313" x="794.55" y="402.2273"/><rect fill="#FFFFFF" height="33.0146" rx="2.5" ry="2.5" style="stroke:#000000;stroke-width:1;" width="101.5313" x="790.55" y="398.2273"/><text fill="#000000" font-family="Verdana" font-size="14" lengthAdjust="spacing" textLength="85.5313" x="798.55" y="420.3025">Redis Cache</text></g><!--link Web to Gateway--><g class="link" data-entity-1="ent0003" data-entity-2="ent0006" data-link-type="dependency" data-source-line="29" id="lnk17"><path d="M152.14,173.8673 C177.99,178.5173 203.7946,183.1463 231.3446,188.0963" fill="none" id="Web-to-Gateway" style="stroke:#000000;stroke-width:1;"/><polygon fill="#000000" points="237.25,189.1573,229.0992,183.6288,232.3288,188.2731,227.6845,191.5027,237.25,189.1573" style="stroke:#000000;stroke-width:1;"/></g><!--link Admin to Gateway--><g class="link" data-entity-1="ent0004" data-entity-2="ent0006" data-link-type="dependency" data-source-line="30" id="lnk18"><path d="M173.09,230.2573 C194.09,225.4373 211.0522,221.5502 231.5622,216.8402" fill="none" id="Admin-to-Gateway" style="stroke:#000000;stroke-width:1;"/><polygon fill="#000000" points="237.41,215.4973,227.743,213.6131,232.5368,216.6164,229.5336,221.4102,237.41,215.4973" style="stroke:#000000;stroke-width:1;"/></g><!--link Gateway to Identity--><g class="link" data-entity-1="ent0006" data-entity-2="ent0007" data-link-type="dependency" data-source-line="31" id="lnk19"><path d="M362.02,224.6773 C388.17,235.4073 413.3888,245.7604 439.5488,256.4904" fill="none" id="Gateway-to-Identity" style="stroke:#000000;stroke-width:1;"/><polygon fill="#000000" points="445.1,258.7673,438.2912,251.6511,440.474,256.8699,435.2553,259.0527,445.1,258.7673" style="stroke:#000000;stroke-width:1;"/></g><!--link Gateway to Orders--><g class="link" data-entity-1="ent0006" data-entity-2="ent0008" data-link-type="dependency" data-source-line="32" id="lnk20"><path d="M362.02,176.7973 C388.17,166.0673 413.3888,155.7142 439.5488,144.9842" fill="none" id="Gateway-to-Orders" style="stroke:#000000;stroke-width:1;"/><polygon fill="#000000" points="445.1,142.7073,435.2553,142.4219,440.474,144.6047,438.2912,149.8235,445.1,142.7073" style="stroke:#000000;stroke-width:1;"/></g><!--link Gateway to Billing--><g class="link" data-entity-1="ent0006" data-entity-2="ent0009" data-link-type="dependency" data-source-line="33" id="lnk21"><path d="M368.01,200.7373 C389.23,200.7373 406.92,200.7373 428.47,200.7373" fill="none" id="Gateway-to-Billing" style="stroke:#000000;stroke-width:1;"/><polygon fill="#000000" points="434.47,200.7373,425.47,196.7373,429.47,200.7373,425.47,204.7373,434.47,200.7373" style="stroke:#000000;stroke-width:1;"/></g><!--link Orders to Postgres--><g class="link" data-entity-1="ent0008" data-entity-2="ent0015" data-link-type="dependency" data-source-line="34" id="lnk22"><path d="M562.64,142.6273 C569.38,147.4473 575.54,153.1173 580.28,159.7373 C625.2,222.4773 565.97,267.5673 610.28,330.7373 C644.12,378.9873 684.22,354.4673 725.28,396.7373 C744.95,416.9973 734.8,433.2973 755.28,452.7373 C765.81,462.7473 773.801,468.1541 786.941,474.2741" fill="none" id="Orders-to-Postgres" style="stroke:#000000;stroke-width:1;"/><polygon fill="#000000" points="792.38,476.8073,785.9103,469.3815,787.8475,474.6963,782.5327,476.6335,792.38,476.8073" style="stroke:#000000;stroke-width:1;"/></g><!--link Billing to Postgres--><g class="link" data-entity-1="ent0009" data-entity-2="ent0015" data-link-type="dependency" data-source-line="35" id="lnk23"><path d="M562.06,224.5273 C568.98,229.3773 575.33,235.0873 580.28,241.7373 C618.73,293.5273 570.35,333.0773 610.28,383.7373 C655.81,441.5173 733.2182,469.0557 786.6382,482.3757" fill="none" id="Billing-to-Postgres" style="stroke:#000000;stroke-width:1;"/><polygon fill="#000000" points="792.46,483.8273,784.6951,477.7687,787.6085,482.6176,782.7596,485.531,792.46,483.8273" style="stroke:#000000;stroke-width:1;"/></g><!--link Orders to Redis--><g class="link" data-entity-1="ent0008" data-entity-2="ent0016" data-link-type="dependency" data-source-line="36" id="lnk24"><path d="M557.41,142.5373 C565.57,147.5573 573.53,153.3073 580.28,159.7373 C598.76,177.3573 593.93,189.1173 610.28,208.7373 C675.9,287.4973 766.7358,360.0064 811.9758,394.2464" fill="none" id="Orders-to-Redis" style="stroke:#000000;stroke-width:1;"/><polygon fill="#000000" points="816.76,397.8673,811.9976,389.2464,812.7732,394.8498,807.1697,395.6254,816.76,397.8673" style="stroke:#000000;stroke-width:1;"/></g><!--link Billing to Payment--><g class="link" data-entity-1="ent0009" data-entity-2="ent0013" data-link-type="dependency" data-source-line="37" id="lnk25"><path d="M563.26,224.7173 C569.82,229.5073 575.76,235.1473 580.28,241.7373 C637.77,325.7173 549.24,387.3073 610.28,468.7373 C703.84,593.5473 802.73,564.9473 955.35,532.7373 C983.16,526.8673 1006.9857,516.9649 1029.8657,505.3949" fill="none" id="Billing-to-Payment" style="stroke:#000000;stroke-width:1;"/><polygon fill="#000000" points="1035.22,502.6873,1025.3834,503.1791,1030.7581,504.9436,1028.9936,510.3183,1035.22,502.6873" style="stroke:#000000;stroke-width:1;"/></g><!--link Notify to Email--><g class="link" data-entity-1="ent0010" data-entity-2="ent0012" data-link-type="dependency" data-source-line="38" id="lnk26"><path d="M872.45,224.3773 C917.29,262.0573 999.8565,331.4273 1044.7565,369.1573" fill="none" id="Notify-to-Email" style="stroke:#000000;stroke-width:1;"/><polygon fill="#000000" points="1049.35,373.0173,1045.033,364.165,1045.5221,369.8006,1039.8864,370.2897,1049.35,373.0173" style="stroke:#000000;stroke-width:1;"/></g><!--link Orders to Notify--><g class="link" data-entity-1="ent0008" data-entity-2="ent0010" data-link-type="dependency" data-source-line="39" id="lnk27"><path d="M573.26,135.2373 C625.51,147.9573 692.3502,164.2282 749.0002,178.0182" fill="none" id="Orders-to-Notify" style="stroke:#000000;stroke-width:1;stroke-dasharray:7,7;"/><polygon fill="#000000" points="754.83,179.4373,747.0314,173.4221,749.9719,178.2547,745.1393,181.1952,754.83,179.4373" style="stroke:#000000;stroke-width:1;"/><text fill="#000000" font-family="Verdana" font-size="13" lengthAdjust="spacing" textLength="96.1099" x="619.78" y="142.3371">domain events</text></g><!--link Billing to Notify--><g class="link" data-entity-1="ent0009" data-entity-2="ent0010" data-link-type="dependency" data-source-line="40" id="lnk28"><path d="M574.48,200.7373 C626.63,200.7373 692.61,200.7373 748.82,200.7373" fill="none" id="Billing-to-Notify" style="stroke:#000000;stroke-width:1;stroke-dasharray:7,7;"/><polygon fill="#000000" points="754.82,200.7373,745.82,196.7373,749.82,200.7373,745.82,204.7373,754.82,200.7373" style="stroke:#000000;stroke-width:1;"/><text fill="#000000" font-family="Verdana" font-size="13" lengthAdjust="spacing" textLength="113.7817" x="611.28" y="197.8071">payment updates</text></g></g></svg>