<?plantuml 1.2026.2?><svg xmlns="http://www.w3.org/2000/svg" xmlns:xlink="http://www.w3.org/1999/xlink" contentStyleType="text/css" data-diagram-type="DESCRIPTION" height="608px" preserveAspectRatio="none" style="width:795px;height:608px;" version="1.1" viewBox="0 0 795 608" width="795px" zoomAndPan="magnify"><title>Edge To Core Deployment Topology</title><defs/><g><g class="title" data-source-line="1"><text fill="#000000" font-family="sans-serif" font-size="14" font-weight="bold" lengthAdjust="spacing" textLength="260.2578" x="260.7326" y="23.5352">Edge To Core Deployment Topology</text></g><!--cluster Public Internet--><g class="cluster" data-qualified-name="Public Internet" data-source-line="24" id="ent0002"><path d="M113.0607,52.2887 C116.1614,47.7404 119.8595,48.777 122.4464,52.8481 C125.0527,45.8844 131.0491,45.7927 135.2967,51.1342 C137.911,46.6224 142.2795,45.4181 145.5552,50.4211 C149.4897,44.6676 153.8214,45.655 157.0544,51.139 C159.9488,45.812 164.0573,46.0413 167.6927,50.3181 C170.5066,43.7045 177.0108,43.4883 180.7254,49.3793 C184.3185,44.2382 188.0804,45.5067 191.1608,49.9382 C194.7376,44.5922 199.0823,44.8083 202.1092,50.4845 C206.1196,45.2258 210.8268,45.0579 214.6919,50.6529 C218.0554,47.0165 222.5875,47.2607 224.5581,52.2468 C228.1705,46.1029 234.1768,47.1683 237.5619,52.5042 C241.4281,47.6028 245.8208,49.1114 248.3527,53.9781 C254.3878,57.7667 253.2821,63.8016 247.8295,67.1334 C253.4017,70.28 254.4785,76.6406 248.524,80.3911 C255.4869,83.7771 256.3266,89.9026 250.209,94.8165 C256.2781,98.9375 255.3632,104.3239 248.8514,107.0487 C256.312,111.0985 255.0325,116.1268 249.2876,120.6017 C254.5404,125.8918 254.3066,129.8977 247.6053,133.646 C245.0292,140.3267 240.889,140.3996 236.3062,135.6256 C232.6593,141.0239 228.5836,141.8337 224.728,135.8376 C221.8588,142.0289 218.4558,141.7153 214.178,137.2295 C211.4337,144.6372 207.3782,143.7576 202.1958,139.8001 C198.5038,144.4409 194.8621,143.7128 191.8891,139.0073 C190.1813,145.2431 185.8066,145.8517 181.1901,142.1337 C175.7464,148.0951 170.5861,145.8945 168.401,138.9136 C164.3596,144.4292 160.9627,142.973 157.5996,138.2013 C154.1151,143.2346 149.6911,144.0752 146.0927,138.3228 C141.9331,143.2973 136.3974,142.4181 134.3117,136.1496 C130.4718,141.4816 125.1542,141.6152 122.5585,134.9324 C119.2648,139.2503 115.9173,140.4106 112.1818,135.4251 C104.1839,131.6819 104.776,125.8727 111.2728,121.2031 C105.3097,117.7118 103.8891,111.8034 110.929,107.9741 C103.1549,104.5467 103.0464,98.1053 109.21,93.0704 C103.2198,88.1958 105.3503,83.7923 111.1781,80.8157 C105.6205,75.9178 105.9561,70.8496 111.9214,66.5522 C105.9496,62.1153 106.0365,55.6874 113.0607,52.2887" fill="#E0F2FE" style="stroke:#181818;stroke-width:1;"/><text fill="#000000" font-family="sans-serif" font-size="14" font-weight="bold" lengthAdjust="spacing" textLength="105.376" x="126.312" y="70.5251">Public Internet</text></g><!--cluster Production VPC--><g class="cluster" data-qualified-name="Production VPC" data-source-line="28" id="ent0004"><polygon fill="#F8FAFC" points="16,175.4799,26,165.4799,462,165.4799,462,581.9399,452,591.9399,16,591.9399,16,175.4799" style="stroke:#181818;stroke-width:1;"/><line style="stroke:#181818;stroke-width:1;" x1="452" x2="462" y1="175.4799" y2="165.4799"/><line style="stroke:#181818;stroke-width:1;" x1="16" x2="452" y1="175.4799" y2="175.4799"/><line style="stroke:#181818;stroke-width:1;" x1="452" x2="452" y1="175.4799" y2="591.9399"/><text fill="#0F172A" font-family="sans-serif" font-size="14" font-weight="bold" lengthAdjust="spacing" textLength="111.1318" x="179.4341" y="192.0151">Production VPC</text></g><!--cluster Ingress Subnet--><g class="cluster" data-qualified-name="Production VPC.Ingress Subnet" data-source-line="29" id="ent0005"><polygon fill="#F8FAFC" points="83,223.4799,93,213.4799,275,213.4799,275,305.9599,265,315.9599,83,315.9599,83,223.4799" style="stroke:#181818;stroke-width:1;"/><line style="stroke:#181818;stroke-width:1;" x1="265" x2="275" y1="223.4799" y2="213.4799"/><line style="stroke:#181818;stroke-width:1;" x1="83" x2="265" y1="223.4799" y2="223.4799"/><line style="stroke:#181818;stroke-width:1;" x1="265" x2="265" y1="223.4799" y2="315.9599"/><text fill="#0F172A" font-family="sans-serif" font-size="14" font-weight="bold" lengthAdjust="spacing" textLength="107.625" x="121.1875" y="240.0151">Ingress Subnet</text></g><!--cluster Application Subnet--><g class="cluster" data-qualified-name="Production VPC.Application Subnet" data-source-line="33" id="ent0007"><polygon fill="#F8FAFC" points="79,349.9599,89,339.9599,438,339.9599,438,432.4499,428,442.4499,79,442.4499,79,349.9599" style="stroke:#181818;stroke-width:1;"/><line style="stroke:#181818;stroke-width:1;" x1="428" x2="438" y1="349.9599" y2="339.9599"/><line style="stroke:#181818;stroke-width:1;" x1="79" x2="428" y1="349.9599" y2="349.9599"/><line style="stroke:#181818;stroke-width:1;" x1="428" x2="428" y1="349.9599" y2="442.4499"/><text fill="#0F172A" font-family="sans-serif" font-size="14" font-weight="bold" lengthAdjust="spacing" textLength="136.165" x="186.4175" y="366.4951">Application Subnet</text></g><!--cluster Data Subnet--><g class="cluster" data-qualified-name="Production VPC.Data Subnet" data-source-line="38" id="ent0010"><polygon fill="#F8FAFC" points="40,476.4499,50,466.4499,438,466.4499,438,557.9399,428,567.9399,40,567.9399,40,476.4499" style="stroke:#181818;stroke-width:1;"/><line style="stroke:#181818;stroke-width:1;" x1="428" x2="438" y1="476.4499" y2="466.4499"/><line style="stroke:#181818;stroke-width:1;" x1="40" x2="428" y1="476.4499" y2="476.4499"/><line style="stroke:#181818;stroke-width:1;" x1="428" x2="428" y1="476.4499" y2="567.9399"/><text fill="#0F172A" font-family="sans-serif" font-size="14" font-weight="bold" lengthAdjust="spacing" textLength="87.3906" x="191.3047" y="492.9851">Data Subnet</text></g><!--cluster Third-Party Providers--><g class="cluster" data-qualified-name="Third-Party Providers" data-source-line="45" id="ent0014"><path d="M496.5339,481.0861 C500.9799,471.6254 509.8456,472.4887 514.4645,480.9127 C520.0546,469.8839 528.1863,470.0707 535.4627,479.152 C540.2232,468.6367 550.2916,469.7052 555.8621,478.2869 C561.585,467.9832 569.5678,466.8214 576.5258,477.0435 C582.8641,466.8636 589.7336,467.5377 595.672,477.4251 C603.0265,468.9047 609.0856,468.1709 615.2054,478.6918 C619.8399,469.1642 627.5194,469.7154 632.9069,477.9409 C638.4923,466.8417 644.6346,466.4414 652.9533,475.1787 C661.2578,465.7667 668.8493,466.0265 674.9855,477.4694 C682.0257,469.7706 688.145,470.4658 694.1605,478.7024 C702.1955,470.9758 708.4799,470.9473 714.9167,480.61 C719.5444,471.392 727.201,470.3178 734.2328,477.8351 C741.2754,469.4273 749.3929,470.9753 753.5483,480.8803 C758.9868,472.3794 768.5198,470.0262 774.2299,480.5856 C784.0787,487.3645 783.1521,494.0228 774.2046,500.7782 C787.0226,504.1833 788.7231,513.8101 778.9994,522.2492 C787.5755,529.4947 785.9653,536.3474 775.7852,540.2426 C784.3208,549.5806 781.9787,556.1885 771.1685,561.2814 C766.7005,569.8207 761.4735,571.3752 753.965,564.725 C748.1542,573.9699 738.3442,573.5547 732.5051,564.7585 C726.0738,575.9444 719.3747,574.7831 711.7794,565.9644 C707.088,573.132 701.0187,574.9804 695.2788,567.1154 C690.1906,576.8674 679.3083,580.3048 672.2839,569.2557 C667.1191,576.4198 660.4336,576.5906 654.918,569.6889 C649.0939,578.7612 642.5988,580.4212 636.1267,570.3241 C629.2783,578.7908 621.9065,578.8582 615.6933,569.5921 C608.8293,579.3814 600.2637,579.3741 594.733,568.2554 C587.1687,578.9016 580.9876,578.4897 574.4884,567.2693 C568.498,576.5333 560.2586,574.9551 555.6252,565.874 C548.8552,575.5473 542.2287,576.2428 535.8112,565.5313 C527.8108,573.2589 519.4867,572.2325 514.7891,561.7239 C508.9963,571.7856 502.644,571.7095 496.2575,562.2886 C485.279,559.0338 481.1062,553.1356 487.9969,542.443 C476.3366,538.1411 476.8788,529.728 484.5903,522.1708 C478.2669,512.9972 478.1172,505.3522 491.0162,502.4386 C484.2512,493.2907 483.0958,485.0134 496.5339,481.0861" fill="#E0F2FE" style="stroke:#181818;stroke-width:1;"/><text fill="#000000" font-family="sans-serif" font-size="14" font-weight="bold" lengthAdjust="spacing" textLength="158.1289" x="553.4355" y="497.4851">Third-Party Providers</text></g><!--entity Edge--><g class="entity" data-qualified-name="Public Internet.Edge" data-source-line="25" id="ent0003"><polygon fill="#F8FAFC" points="119.18,88.9899,129.18,78.9899,238.8255,78.9899,238.8255,115.4782,228.8255,125.4782,119.18,125.4782,119.18,88.9899" style="stroke:#181818;stroke-width:0.5;"/><line style="stroke:#181818;stroke-width:0.5;" x1="228.8255" x2="238.8255" y1="88.9899" y2="78.9899"/><line style="stroke:#181818;stroke-width:0.5;" x1="119.18" x2="228.8255" y1="88.9899" y2="88.9899"/><line style="stroke:#181818;stroke-width:0.5;" x1="228.8255" x2="228.8255" y1="88.9899" y2="125.4782"/><text fill="#0F172A" font-family="sans-serif" font-size="14" lengthAdjust="spacing" textLength="30.5156" x="134.18" y="112.5251">CDN</text><text fill="#0F172A" font-family="sans-serif" font-size="14" lengthAdjust="spacing" textLength="4.4297" x="164.6956" y="112.5251">&#160;</text><text fill="#0F172A" font-family="sans-serif" font-size="14" lengthAdjust="spacing" textLength="11.1289" x="169.1253" y="112.5251">+</text><text fill="#0F172A" font-family="sans-serif" font-size="14" lengthAdjust="spacing" textLength="4.4297" x="180.2542" y="112.5251">&#160;</text><text fill="#0F172A" font-family="sans-serif" font-size="14" lengthAdjust="spacing" textLength="29.1416" x="184.6839" y="112.5251">WAF</text></g><!--entity Gateway--><g class="entity" data-qualified-name="Production VPC.Ingress Subnet.Gateway" data-source-line="30" id="ent0006"><polygon fill="#F8FAFC" points="99.35,263.4799,109.35,253.4799,258.6439,253.4799,258.6439,289.9682,248.6439,299.9682,99.35,299.9682,99.35,263.4799" style="stroke:#181818;stroke-width:0.5;"/><line style="stroke:#181818;stroke-width:0.5;" x1="248.6439" x2="258.6439" y1="263.4799" y2="253.4799"/><line style="stroke:#181818;stroke-width:0.5;" x1="99.35" x2="248.6439" y1="263.4799" y2="263.4799"/><line style="stroke:#181818;stroke-width:0.5;" x1="248.6439" x2="248.6439" y1="263.4799" y2="299.9682"/><text fill="#0F172A" font-family="sans-serif" font-size="14" lengthAdjust="spacing" textLength="21.4307" x="114.35" y="287.0151">API</text><text fill="#0F172A" font-family="sans-serif" font-size="14" lengthAdjust="spacing" textLength="4.4297" x="135.7807" y="287.0151">&#160;</text><text fill="#0F172A" font-family="sans-serif" font-size="14" lengthAdjust="spacing" textLength="56.7178" x="140.2104" y="287.0151">Gateway</text><text fill="#0F172A" font-family="sans-serif" font-size="14" lengthAdjust="spacing" textLength="4.4297" x="196.9281" y="287.0151">&#160;</text><text fill="#0F172A" font-family="sans-serif" font-size="14" lengthAdjust="spacing" textLength="32.2861" x="201.3578" y="287.0151">Pods</text></g><!--entity Orders--><g class="entity" data-qualified-name="Production VPC.Application Subnet.Orders" data-source-line="34" id="ent0008"><polygon fill="#F8FAFC" points="95.29,389.9599,105.29,379.9599,262.7119,379.9599,262.7119,416.4482,252.7119,426.4482,95.29,426.4482,95.29,389.9599" style="stroke:#181818;stroke-width:0.5;"/><line style="stroke:#181818;stroke-width:0.5;" x1="252.7119" x2="262.7119" y1="389.9599" y2="379.9599"/><line style="stroke:#181818;stroke-width:0.5;" x1="95.29" x2="252.7119" y1="389.9599" y2="389.9599"/><line style="stroke:#181818;stroke-width:0.5;" x1="252.7119" x2="252.7119" y1="389.9599" y2="426.4482"/><text fill="#0F172A" font-family="sans-serif" font-size="14" lengthAdjust="spacing" textLength="38.9443" x="110.29" y="413.4951">Order</text><text fill="#0F172A" font-family="sans-serif" font-size="14" lengthAdjust="spacing" textLength="4.4297" x="149.2343" y="413.4951">&#160;</text><text fill="#0F172A" font-family="sans-serif" font-size="14" lengthAdjust="spacing" textLength="47.332" x="153.664" y="413.4951">Service</text><text fill="#0F172A" font-family="sans-serif" font-size="14" lengthAdjust="spacing" textLength="4.4297" x="200.9961" y="413.4951">&#160;</text><text fill="#0F172A" font-family="sans-serif" font-size="14" lengthAdjust="spacing" textLength="32.2861" x="205.4257" y="413.4951">Pods</text></g><!--entity Workers--><g class="entity" data-qualified-name="Production VPC.Application Subnet.Workers" data-source-line="35" id="ent0009"><polygon fill="#F8FAFC" points="297.63,389.9599,307.63,379.9599,422.3614,379.9599,422.3614,416.4482,412.3614,426.4482,297.63,426.4482,297.63,389.9599" style="stroke:#181818;stroke-width:0.5;"/><line style="stroke:#181818;stroke-width:0.5;" x1="412.3614" x2="422.3614" y1="389.9599" y2="379.9599"/><line style="stroke:#181818;stroke-width:0.5;" x1="297.63" x2="412.3614" y1="389.9599" y2="389.9599"/><line style="stroke:#181818;stroke-width:0.5;" x1="412.3614" x2="412.3614" y1="389.9599" y2="426.4482"/><text fill="#0F172A" font-family="sans-serif" font-size="14" lengthAdjust="spacing" textLength="48.0156" x="312.63" y="413.4951">Worker</text><text fill="#0F172A" font-family="sans-serif" font-size="14" lengthAdjust="spacing" textLength="4.4297" x="360.6456" y="413.4951">&#160;</text><text fill="#0F172A" font-family="sans-serif" font-size="14" lengthAdjust="spacing" textLength="32.2861" x="365.0753" y="413.4951">Pods</text></g><!--entity Postgres--><g class="entity" data-qualified-name="Production VPC.Data Subnet.Postgres" data-source-line="39" id="ent0011"><path d="M55.68,516.4499 C55.68,506.4499 131.9988,506.4499 131.9988,506.4499 C131.9988,506.4499 208.3177,506.4499 208.3177,516.4499 L208.3177,541.9382 C208.3177,551.9382 131.9988,551.9382 131.9988,551.9382 C131.9988,551.9382 55.68,551.9382 55.68,541.9382 L55.68,516.4499" fill="#FEF3C7" style="stroke:#181818;stroke-width:0.5;"/><path d="M55.68,516.4499 C55.68,526.4499 131.9988,526.4499 131.9988,526.4499 C131.9988,526.4499 208.3177,526.4499 208.3177,516.4499" fill="none" style="stroke:#181818;stroke-width:0.5;"/><text fill="#000000" font-family="sans-serif" font-size="14" lengthAdjust="spacing" textLength="76.8496" x="65.68" y="543.9851">PostgreSQL</text><text fill="#000000" font-family="sans-serif" font-size="14" lengthAdjust="spacing" textLength="4.4297" x="142.5296" y="543.9851">&#160;</text><text fill="#000000" font-family="sans-serif" font-size="14" lengthAdjust="spacing" textLength="51.3584" x="146.9593" y="543.9851">Primary</text></g><!--entity MQ--><g class="entity" data-qualified-name="Production VPC.Data Subnet.MQ" data-source-line="40" id="ent0012"><path d="M340.79,515.9499 L417.2148,515.9499 C422.2148,515.9499 422.2148,529.1941 422.2148,529.1941 C422.2148,529.1941 422.2148,542.4382 417.2148,542.4382 L340.79,542.4382 C335.79,542.4382 335.79,529.1941 335.79,529.1941 C335.79,529.1941 335.79,515.9499 340.79,515.9499" fill="#F1F1F1" style="stroke:#181818;stroke-width:0.5;"/><path d="M417.2148,515.9499 C412.2148,515.9499 412.2148,529.1941 412.2148,529.1941 C412.2148,542.4382 417.2148,542.4382 417.2148,542.4382" fill="none" style="stroke:#181818;stroke-width:0.5;"/><text fill="#000000" font-family="sans-serif" font-size="14" lengthAdjust="spacing" textLength="66.4248" x="340.79" y="534.4851">RabbitMQ</text></g><!--entity Redis--><g class="entity" data-qualified-name="Production VPC.Data Subnet.Redis" data-source-line="41" id="ent0013"><path d="M243.68,516.4499 C243.68,506.4499 272.0037,506.4499 272.0037,506.4499 C272.0037,506.4499 300.3275,506.4499 300.3275,516.4499 L300.3275,541.9382 C300.3275,551.9382 272.0037,551.9382 272.0037,551.9382 C272.0037,551.9382 243.68,551.9382 243.68,541.9382 L243.68,516.4499" fill="#FEF3C7" style="stroke:#181818;stroke-width:0.5;"/><path d="M243.68,516.4499 C243.68,526.4499 272.0037,526.4499 272.0037,526.4499 C272.0037,526.4499 300.3275,526.4499 300.3275,516.4499" fill="none" style="stroke:#181818;stroke-width:0.5;"/><text fill="#000000" font-family="sans-serif" font-size="14" lengthAdjust="spacing" textLength="36.6475" x="253.68" y="543.9851">Redis</text></g><!--entity Payment--><g class="entity" data-qualified-name="Third-Party Providers.Payment" data-source-line="46" id="ent0015"><polygon fill="#F8FAFC" points="502.28,515.9499,512.28,505.9499,625.7195,505.9499,625.7195,542.4382,615.7195,552.4382,502.28,552.4382,502.28,515.9499" style="stroke:#181818;stroke-width:0.5;"/><line style="stroke:#181818;stroke-width:0.5;" x1="615.7195" x2="625.7195" y1="515.9499" y2="505.9499"/><line style="stroke:#181818;stroke-width:0.5;" x1="502.28" x2="615.7195" y1="515.9499" y2="515.9499"/><line style="stroke:#181818;stroke-width:0.5;" x1="615.7195" x2="615.7195" y1="515.9499" y2="552.4382"/><text fill="#0F172A" font-family="sans-serif" font-size="14" lengthAdjust="spacing" textLength="57.5791" x="517.28" y="539.4851">Payment</text><text fill="#0F172A" font-family="sans-serif" font-size="14" lengthAdjust="spacing" textLength="4.4297" x="574.8591" y="539.4851">&#160;</text><text fill="#0F172A" font-family="sans-serif" font-size="14" lengthAdjust="spacing" textLength="21.4307" x="579.2888" y="539.4851">API</text></g><!--entity Email--><g class="entity" data-qualified-name="Third-Party Providers.Email" data-source-line="47" id="ent0016"><polygon fill="#F8FAFC" points="660.83,515.9499,670.83,505.9499,763.1738,505.9499,763.1738,542.4382,753.1738,552.4382,660.83,552.4382,660.83,515.9499" style="stroke:#181818;stroke-width:0.5;"/><line style="stroke:#181818;stroke-width:0.5;" x1="753.1738" x2="763.1738" y1="515.9499" y2="505.9499"/><line style="stroke:#181818;stroke-width:0.5;" x1="660.83" x2="753.1738" y1="515.9499" y2="515.9499"/><line style="stroke:#181818;stroke-width:0.5;" x1="753.1738" x2="753.1738" y1="515.9499" y2="552.4382"/><text fill="#0F172A" font-family="sans-serif" font-size="14" lengthAdjust="spacing" textLength="36.4834" x="675.83" y="539.4851">Email</text><text fill="#0F172A" font-family="sans-serif" font-size="14" lengthAdjust="spacing" textLength="4.4297" x="712.3134" y="539.4851">&#160;</text><text fill="#0F172A" font-family="sans-serif" font-size="14" lengthAdjust="spacing" textLength="21.4307" x="716.7431" y="539.4851">API</text></g><!--link Edge to Gateway--><g class="link" data-entity-1="ent0003" data-entity-2="ent0006" data-link-type="dependency" data-source-line="50" id="lnk17"><path d="M179,125.7799 C179,158.8399 179,214.0999 179,247.1599" fill="none" id="Edge-to-Gateway" style="stroke:#181818;stroke-width:1;"/><polygon fill="#181818" points="179,253.1599,183,244.1599,179,248.1599,175,244.1599,179,253.1599" style="stroke:#181818;stroke-width:1;"/></g><!--link Gateway to Orders--><g class="link" data-entity-1="ent0006" data-entity-2="ent0008" data-link-type="dependency" data-source-line="51" id="lnk18"><path d="M179,300.2599 C179,322.8199 179,351.3299 179,373.8299" fill="none" id="Gateway-to-Orders" style="stroke:#181818;stroke-width:1;"/><polygon fill="#181818" points="179,379.8299,183,370.8299,179,374.8299,175,370.8299,179,379.8299" style="stroke:#181818;stroke-width:1;"/></g><!--link Orders to MQ--><g class="link" data-entity-1="ent0008" data-entity-2="ent0012" data-link-type="dependency" data-source-line="52" id="lnk19"><path d="M222.89,426.8799 C240.32,435.1899 260.77,444.1099 280,450.4499 C296.39,455.8599 303.11,449.7299 318,458.4499 C342.15,472.5999 358.4568,494.6502 368.4768,510.5902" fill="none" id="Orders-to-MQ" style="stroke:#181818;stroke-width:1;"/><polygon fill="#181818" points="371.67,515.6699,370.2668,505.9216,369.009,511.4368,363.4938,510.1791,371.67,515.6699" style="stroke:#181818;stroke-width:1;"/></g><!--link Workers to MQ--><g class="link" data-entity-1="ent0009" data-entity-2="ent0012" data-link-type="dependency" data-source-line="53" id="lnk20"><path d="M363.48,426.9499 C367.47,452.9599 372.9394,488.6895 376.1394,509.5295" fill="none" id="Workers-to-MQ" style="stroke:#181818;stroke-width:1;"/><polygon fill="#181818" points="377.05,515.4599,379.6377,505.9571,376.2911,510.5179,371.7304,507.1713,377.05,515.4599" style="stroke:#181818;stroke-width:1;"/></g><!--link Orders to Postgres--><g class="link" data-entity-1="ent0008" data-entity-2="ent0011" data-link-type="dependency" data-source-line="54" id="lnk21"><path d="M170.38,426.9499 C161.85,449.4599 150.9966,478.0894 142.5366,500.4094" fill="none" id="Orders-to-Postgres" style="stroke:#181818;stroke-width:1;"/><polygon fill="#181818" points="140.41,506.0199,147.3402,499.0219,142.1821,501.3445,139.8595,496.1865,140.41,506.0199" style="stroke:#181818;stroke-width:1;"/></g><!--link Orders to Redis--><g class="link" data-entity-1="ent0008" data-entity-2="ent0013" data-link-type="dependency" data-source-line="55" id="lnk22"><path d="M199.81,426.8799 C208.24,436.3999 217.87,447.7299 226,458.4499 C237.65,473.8299 246.4078,486.9759 255.2178,500.9359" fill="none" id="Orders-to-Redis" style="stroke:#181818;stroke-width:1;"/><polygon fill="#181818" points="258.42,506.0099,256.9994,496.2641,255.7515,501.7816,250.234,500.5336,258.42,506.0099" style="stroke:#181818;stroke-width:1;"/></g><!--link Workers to Payment--><g class="link" data-entity-1="ent0009" data-entity-2="ent0015" data-link-type="dependency" data-source-line="56" id="lnk23"><path d="M397.42,426.9499 C434.22,449.3199 484.9625,480.1641 521.6925,502.4841" fill="none" id="Workers-to-Payment" style="stroke:#181818;stroke-width:1;"/><polygon fill="#181818" points="526.82,505.5999,521.206,497.5078,522.5471,503.0034,517.0515,504.3445,526.82,505.5999" style="stroke:#181818;stroke-width:1;"/></g><!--link Workers to Email--><g class="link" data-entity-1="ent0009" data-entity-2="ent0016" data-link-type="dependency" data-source-line="57" id="lnk24"><path d="M422.86,405.6699 C482.67,409.4199 573.59,421.4199 643,458.4499 C664.19,469.7599 679.2131,485.0917 691.8131,500.7817" fill="none" id="Workers-to-Email" style="stroke:#181818;stroke-width:1;"/><polygon fill="#181818" points="695.57,505.4599,693.0535,495.938,692.4393,501.5614,686.8158,500.9472,695.57,505.4599" style="stroke:#181818;stroke-width:1;"/></g></g></svg>