<?plantuml 1.2026.2?><svg xmlns="http://www.w3.org/2000/svg" xmlns:xlink="http://www.w3.org/1999/xlink" contentStyleType="text/css" data-diagram-type="SEQUENCE" height="753px" preserveAspectRatio="none" style="width:858px;height:753px;" version="1.1" viewBox="0 0 858 753" width="858px" zoomAndPan="magnify"><title>Checkout Request With Payment Fallback</title><defs/><g><text fill="#1F2937" font-family="Helvetica" font-size="14" font-weight="bold" lengthAdjust="spacing" textLength="279.2822" x="290.4277" y="25.7803">Checkout Request With Payment Fallback</text><g><title>API Gateway</title><rect fill="#FFFFFF" height="460" style="stroke:#181818;stroke-width:1;" width="10" x="297.2993" y="170"/></g><g><title>Checkout Service</title><rect fill="#FFFFFF" height="433" style="stroke:#181818;stroke-width:1;" width="10" x="464.27" y="197"/></g><g><title>Payment Service</title><rect fill="#FFFFFF" height="49" style="stroke:#181818;stroke-width:1;" width="10" x="694.1035" y="224"/></g><g><title>Payment Service</title><rect fill="#FFFFFF" height="27" style="stroke:#181818;stroke-width:1;" width="10" x="694.1035" y="421"/></g><rect fill="none" height="365" style="stroke:#000000;stroke-width:1.5;" width="606.6899" x="244.4478" y="239"/><g class="participant-lifeline" data-entity-uid="part1" data-qualified-name="Customer" id="part1-lifeline"><g><title>Customer</title><rect fill="#000000" fill-opacity="0.00000" height="561" width="8" x="34.3413" y="114"/><line style="stroke:#181818;stroke-width:0.5;stroke-dasharray:5,5;" x1="38" x2="38" y1="114" y2="675"/></g></g><g class="participant-lifeline" data-entity-uid="part2" data-qualified-name="App" id="part2-lifeline"><g><title>Web App</title><rect fill="#000000" fill-opacity="0.00000" height="561" width="8" x="178.2676" y="114"/><line style="stroke:#181818;stroke-width:0.5;stroke-dasharray:5,5;" x1="181.4746" x2="181.4746" y1="114" y2="675"/></g></g><g class="participant-lifeline" data-entity-uid="part3" data-qualified-name="Gateway" id="part3-lifeline"><g><title>API Gateway</title><rect fill="#000000" fill-opacity="0.00000" height="561" width="8" x="298.2993" y="114"/><line style="stroke:#181818;stroke-width:0.5;stroke-dasharray:5,5;" x1="301.4478" x2="301.4478" y1="114" y2="675"/></g></g><g class="participant-lifeline" data-entity-uid="part4" data-qualified-name="Checkout" id="part4-lifeline"><g><title>Checkout Service</title><rect fill="#000000" fill-opacity="0.00000" height="561" width="8" x="465.27" y="114"/><line style="stroke:#181818;stroke-width:0.5;stroke-dasharray:5,5;" x1="468.4116" x2="468.4116" y1="114" y2="675"/></g></g><g class="participant-lifeline" data-entity-uid="part5" data-qualified-name="Payment" id="part5-lifeline"><g><title>Payment Service</title><rect fill="#000000" fill-opacity="0.00000" height="561" width="8" x="695.1035" y="114"/><line style="stroke:#181818;stroke-width:0.5;stroke-dasharray:5,5;" x1="698.1934" x2="698.1934" y1="114" y2="675"/></g></g><g class="participant-lifeline" data-entity-uid="part6" data-qualified-name="Orders" id="part6-lifeline"><g><title>Orders DB</title><rect fill="#000000" fill-opacity="0.00000" height="561" width="8" x="801.0757" y="114"/><line style="stroke:#181818;stroke-width:0.5;stroke-dasharray:5,5;" x1="805.0137" x2="805.0137" y1="114" y2="675"/></g></g><g class="participant participant-head" data-entity-uid="part1" data-qualified-name="Customer" id="part1-head"><text fill="#1F2937" font-family="Helvetica" font-size="14" lengthAdjust="spacing" textLength="60.6826" x="5" y="110.7803">Customer</text><ellipse cx="38.3413" cy="48.5" fill="#E2E2F0" rx="8" ry="8" style="stroke:#181818;stroke-width:0.5;"/><path d="M38.3413,56.5 L38.3413,83.5 M25.3413,64.5 L51.3413,64.5 M38.3413,83.5 L25.3413,98.5 M38.3413,83.5 L51.3413,98.5" fill="none" style="stroke:#181818;stroke-width:0.5;"/></g><g class="participant participant-tail" data-entity-uid="part1" data-qualified-name="Customer" id="part1-tail"><text fill="#1F2937" font-family="Helvetica" font-size="14" lengthAdjust="spacing" textLength="60.6826" x="5" y="684.7803">Customer</text><ellipse cx="38.3413" cy="696.5" fill="#E2E2F0" rx="8" ry="8" style="stroke:#181818;stroke-width:0.5;"/><path d="M38.3413,704.5 L38.3413,731.5 M25.3413,712.5 L51.3413,712.5 M38.3413,731.5 L25.3413,746.5 M38.3413,731.5 L51.3413,746.5" fill="none" style="stroke:#181818;stroke-width:0.5;"/></g><g class="participant participant-head" data-entity-uid="part2" data-qualified-name="App" id="part2-head"><rect fill="#E2E2F0" height="28" rx="2.5" ry="2.5" style="stroke:#181818;stroke-width:0.5;" width="71.5859" x="146.4746" y="85"/><text fill="#1F2937" font-family="Helvetica" font-size="14" lengthAdjust="spacing" textLength="57.5859" x="153.4746" y="102.7803">Web App</text></g><g class="participant participant-tail" data-entity-uid="part2" data-qualified-name="App" id="part2-tail"><rect fill="#E2E2F0" height="28" rx="2.5" ry="2.5" style="stroke:#181818;stroke-width:0.5;" width="71.5859" x="146.4746" y="674"/><text fill="#1F2937" font-family="Helvetica" font-size="14" lengthAdjust="spacing" textLength="57.5859" x="153.4746" y="691.7803">Web App</text></g><g class="participant participant-head" data-entity-uid="part3" data-qualified-name="Gateway" id="part3-head"><rect fill="#E2E2F0" height="28" rx="2.5" ry="2.5" style="stroke:#181818;stroke-width:0.5;" width="95.7031" x="254.4478" y="85"/><text fill="#1F2937" font-family="Helvetica" font-size="14" lengthAdjust="spacing" textLength="81.7031" x="261.4478" y="102.7803">API Gateway</text></g><g class="participant participant-tail" data-entity-uid="part3" data-qualified-name="Gateway" id="part3-tail"><rect fill="#E2E2F0" height="28" rx="2.5" ry="2.5" style="stroke:#181818;stroke-width:0.5;" width="95.7031" x="254.4478" y="674"/><text fill="#1F2937" font-family="Helvetica" font-size="14" lengthAdjust="spacing" textLength="81.7031" x="261.4478" y="691.7803">API Gateway</text></g><g class="participant participant-head" data-entity-uid="part4" data-qualified-name="Checkout" id="part4-head"><rect fill="#E2E2F0" height="28" rx="2.5" ry="2.5" style="stroke:#181818;stroke-width:0.5;" width="123.7168" x="407.4116" y="85"/><text fill="#1F2937" font-family="Helvetica" font-size="14" lengthAdjust="spacing" textLength="109.7168" x="414.4116" y="102.7803">Checkout Service</text></g><g class="participant participant-tail" data-entity-uid="part4" data-qualified-name="Checkout" id="part4-tail"><rect fill="#E2E2F0" height="28" rx="2.5" ry="2.5" style="stroke:#181818;stroke-width:0.5;" width="123.7168" x="407.4116" y="674"/><text fill="#1F2937" font-family="Helvetica" font-size="14" lengthAdjust="spacing" textLength="109.7168" x="414.4116" y="691.7803">Checkout Service</text></g><g class="participant participant-head" data-entity-uid="part5" data-qualified-name="Payment" id="part5-head"><rect fill="#E2E2F0" height="28" rx="2.5" ry="2.5" style="stroke:#181818;stroke-width:0.5;" width="119.8203" x="639.1934" y="85"/><text fill="#1F2937" font-family="Helvetica" font-size="14" lengthAdjust="spacing" textLength="105.8203" x="646.1934" y="102.7803">Payment Service</text></g><g class="participant participant-tail" data-entity-uid="part5" data-qualified-name="Payment" id="part5-tail"><rect fill="#E2E2F0" height="28" rx="2.5" ry="2.5" style="stroke:#181818;stroke-width:0.5;" width="119.8203" x="639.1934" y="674"/><text fill="#1F2937" font-family="Helvetica" font-size="14" lengthAdjust="spacing" textLength="105.8203" x="646.1934" y="691.7803">Payment Service</text></g><g class="participant participant-head" data-entity-uid="part6" data-qualified-name="Orders" id="part6-head"><text fill="#1F2937" font-family="Helvetica" font-size="14" lengthAdjust="spacing" textLength="66.124" x="769.0137" y="110.7803">Orders DB</text><path d="M787.0757,64 C787.0757,54 805.0757,54 805.0757,54 C805.0757,54 823.0757,54 823.0757,64 L823.0757,90 C823.0757,100 805.0757,100 805.0757,100 C805.0757,100 787.0757,100 787.0757,90 L787.0757,64" fill="#E2E2F0" style="stroke:#181818;stroke-width:0.5;"/><path d="M787.0757,64 C787.0757,74 805.0757,74 805.0757,74 C805.0757,74 823.0757,74 823.0757,64" fill="none" style="stroke:#181818;stroke-width:0.5;"/></g><g class="participant participant-tail" data-entity-uid="part6" data-qualified-name="Orders" id="part6-tail"><text fill="#1F2937" font-family="Helvetica" font-size="14" lengthAdjust="spacing" textLength="66.124" x="769.0137" y="684.7803">Orders DB</text><path d="M787.0757,698 C787.0757,688 805.0757,688 805.0757,688 C805.0757,688 823.0757,688 823.0757,698 L823.0757,724 C823.0757,734 805.0757,734 805.0757,734 C805.0757,734 787.0757,734 787.0757,724 L787.0757,698" fill="#E2E2F0" style="stroke:#181818;stroke-width:0.5;"/><path d="M787.0757,698 C787.0757,708 805.0757,708 805.0757,708 C805.0757,708 823.0757,708 823.0757,698" fill="none" style="stroke:#181818;stroke-width:0.5;"/></g><g><title>API Gateway</title><rect fill="#FFFFFF" height="460" style="stroke:#181818;stroke-width:1;" width="10" x="297.2993" y="170"/></g><g><title>Checkout Service</title><rect fill="#FFFFFF" height="433" style="stroke:#181818;stroke-width:1;" width="10" x="464.27" y="197"/></g><g><title>Payment Service</title><rect fill="#FFFFFF" height="49" style="stroke:#181818;stroke-width:1;" width="10" x="694.1035" y="224"/></g><g><title>Payment Service</title><rect fill="#FFFFFF" height="27" style="stroke:#181818;stroke-width:1;" width="10" x="694.1035" y="421"/></g><g class="message" data-entity-1="part1" data-entity-2="part2" id="msg1"><polygon fill="#181818" points="170.2676,139,180.2676,143,170.2676,147,174.2676,143" style="stroke:#181818;stroke-width:1;"/><line style="stroke:#181818;stroke-width:1;" x1="38.3413" x2="176.2676" y1="143" y2="143"/><text fill="#1F2937" font-family="Helvetica" font-size="13" lengthAdjust="spacing" textLength="79.4663" x="70.5713" y="138.0103">Confirm order</text></g><g class="message" data-entity-1="part2" data-entity-2="part3" id="msg2"><polygon fill="#181818" points="285.2993,166,295.2993,170,285.2993,174,289.2993,170" style="stroke:#181818;stroke-width:1;"/><line style="stroke:#181818;stroke-width:1;" x1="182.2676" x2="291.2993" y1="170" y2="170"/><text fill="#1F2937" font-family="Helvetica" font-size="13" lengthAdjust="spacing" textLength="94.6499" x="192.4585" y="165.0103">POST /checkout</text></g><g class="message" data-entity-1="part3" data-entity-2="part4" id="msg3"><polygon fill="#181818" points="452.27,193,462.27,197,452.27,201,456.27,197" style="stroke:#181818;stroke-width:1;"/><line style="stroke:#181818;stroke-width:1;" x1="307.2993" x2="458.27" y1="197" y2="197"/><text fill="#1F2937" font-family="Helvetica" font-size="13" lengthAdjust="spacing" textLength="135.0972" x="318.2361" y="192.0103">createOrder(command)</text></g><g class="message" data-entity-1="part4" data-entity-2="part5" id="msg4"><polygon fill="#181818" points="682.1035,220,692.1035,224,682.1035,228,686.1035,224" style="stroke:#181818;stroke-width:1;"/><line style="stroke:#181818;stroke-width:1;" x1="474.27" x2="688.1035" y1="224" y2="224"/><text fill="#1F2937" font-family="Helvetica" font-size="13" lengthAdjust="spacing" textLength="105.498" x="531.4377" y="219.0103">authorize(amount)</text></g><path d="M244.4478,239 L304.6187,239 L304.6187,244 L294.6187,254 L244.4478,254 L244.4478,239" fill="#EEEEEE" style="stroke:#000000;stroke-width:1.5;"/><rect fill="none" height="365" style="stroke:#000000;stroke-width:1.5;" width="606.6899" x="244.4478" y="239"/><text fill="#1F2937" font-family="Helvetica" font-size="13" font-weight="bold" lengthAdjust="spacing" textLength="15.1709" x="259.4478" y="250.0103">alt</text><text fill="#1F2937" font-family="Helvetica" font-size="11" font-weight="bold" lengthAdjust="spacing" textLength="128.9438" x="319.6187" y="249.4702">[authorization approved]</text><g class="message" data-entity-1="part5" data-entity-2="part4" id="msg5"><polygon fill="#181818" points="485.27,269,475.27,273,485.27,277,481.27,273" style="stroke:#181818;stroke-width:1;"/><line style="stroke:#181818;stroke-width:1;stroke-dasharray:2,2;" x1="479.27" x2="698.1035" y1="273" y2="273"/><text fill="#1F2937" font-family="Helvetica" font-size="13" lengthAdjust="spacing" textLength="143.8062" x="514.7837" y="268.0103">approved(transaction_id)</text></g><g class="message" data-entity-1="part4" data-entity-2="part6" id="msg6"><polygon fill="#181818" points="793.0757,296,803.0757,300,793.0757,304,797.0757,300" style="stroke:#181818;stroke-width:1;"/><line style="stroke:#181818;stroke-width:1;" x1="474.27" x2="799.0757" y1="300" y2="300"/><text fill="#1F2937" font-family="Helvetica" font-size="13" lengthAdjust="spacing" textLength="81.6309" x="598.8574" y="295.0103">INSERT order</text></g><g class="message" data-entity-1="part6" data-entity-2="part4" id="msg7"><polygon fill="#181818" points="485.27,323,475.27,327,485.27,331,481.27,327" style="stroke:#181818;stroke-width:1;"/><line style="stroke:#181818;stroke-width:1;stroke-dasharray:2,2;" x1="479.27" x2="804.0757" y1="327" y2="327"/><text fill="#1F2937" font-family="Helvetica" font-size="13" lengthAdjust="spacing" textLength="47.6963" x="615.8247" y="322.0103">order_id</text></g><g class="message" data-entity-1="part4" data-entity-2="part3" id="msg8"><polygon fill="#181818" points="318.2993,350,308.2993,354,318.2993,358,314.2993,354" style="stroke:#181818;stroke-width:1;"/><line style="stroke:#181818;stroke-width:1;stroke-dasharray:2,2;" x1="312.2993" x2="463.27" y1="354" y2="354"/><text fill="#1F2937" font-family="Helvetica" font-size="13" lengthAdjust="spacing" textLength="71.5508" x="350.0093" y="349.0103">201 Created</text></g><line style="stroke:#000000;stroke-width:1;stroke-dasharray:2,2;" x1="244.4478" x2="851.1377" y1="363" y2="363"/><text fill="#1F2937" font-family="Helvetica" font-size="11" font-weight="bold" lengthAdjust="spacing" textLength="137.5215" x="249.4478" y="371.4702">[primary provider timeout]</text><g class="message" data-entity-1="part5" data-entity-2="part4" id="msg9"><polygon fill="#181818" points="485.27,390,475.27,394,485.27,398,481.27,394" style="stroke:#181818;stroke-width:1;"/><line style="stroke:#181818;stroke-width:1;stroke-dasharray:2,2;" x1="479.27" x2="698.1035" y1="394" y2="394"/><text fill="#1F2937" font-family="Helvetica" font-size="13" lengthAdjust="spacing" textLength="42.6309" x="565.3713" y="389.0103">timeout</text></g><g class="message" data-entity-1="part4" data-entity-2="part5" id="msg10"><polygon fill="#181818" points="682.1035,417,692.1035,421,682.1035,425,686.1035,421" style="stroke:#181818;stroke-width:1;"/><line style="stroke:#181818;stroke-width:1;" x1="474.27" x2="688.1035" y1="421" y2="421"/><text fill="#1F2937" font-family="Helvetica" font-size="13" lengthAdjust="spacing" textLength="200.8335" x="483.77" y="416.0103">retryWithFallbackProvider(amount)</text></g><g class="message" data-entity-1="part5" data-entity-2="part4" id="msg11"><polygon fill="#181818" points="485.27,444,475.27,448,485.27,452,481.27,448" style="stroke:#181818;stroke-width:1;"/><line style="stroke:#181818;stroke-width:1;stroke-dasharray:2,2;" x1="479.27" x2="698.1035" y1="448" y2="448"/><text fill="#1F2937" font-family="Helvetica" font-size="13" lengthAdjust="spacing" textLength="143.8062" x="514.7837" y="443.0103">approved(transaction_id)</text></g><g class="message" data-entity-1="part4" data-entity-2="part6" id="msg12"><polygon fill="#181818" points="793.0757,471,803.0757,475,793.0757,479,797.0757,475" style="stroke:#181818;stroke-width:1;"/><line style="stroke:#181818;stroke-width:1;" x1="474.27" x2="799.0757" y1="475" y2="475"/><text fill="#1F2937" font-family="Helvetica" font-size="13" lengthAdjust="spacing" textLength="81.6309" x="598.8574" y="470.0103">INSERT order</text></g><g class="message" data-entity-1="part6" data-entity-2="part4" id="msg13"><polygon fill="#181818" points="485.27,498,475.27,502,485.27,506,481.27,502" style="stroke:#181818;stroke-width:1;"/><line style="stroke:#181818;stroke-width:1;stroke-dasharray:2,2;" x1="479.27" x2="804.0757" y1="502" y2="502"/><text fill="#1F2937" font-family="Helvetica" font-size="13" lengthAdjust="spacing" textLength="47.6963" x="615.8247" y="497.0103">order_id</text></g><g class="message" data-entity-1="part4" data-entity-2="part3" id="msg14"><polygon fill="#181818" points="318.2993,525,308.2993,529,318.2993,533,314.2993,529" style="stroke:#181818;stroke-width:1;"/><line style="stroke:#181818;stroke-width:1;stroke-dasharray:2,2;" x1="312.2993" x2="463.27" y1="529" y2="529"/><text fill="#1F2937" font-family="Helvetica" font-size="13" lengthAdjust="spacing" textLength="71.5508" x="350.0093" y="524.0103">201 Created</text></g><line style="stroke:#000000;stroke-width:1;stroke-dasharray:2,2;" x1="244.4478" x2="851.1377" y1="538" y2="538"/><text fill="#1F2937" font-family="Helvetica" font-size="11" font-weight="bold" lengthAdjust="spacing" textLength="121.623" x="249.4478" y="546.4702">[authorization rejected]</text><g class="message" data-entity-1="part5" data-entity-2="part4" id="msg15"><polygon fill="#181818" points="485.27,565,475.27,569,485.27,573,481.27,569" style="stroke:#181818;stroke-width:1;"/><line style="stroke:#181818;stroke-width:1;stroke-dasharray:2,2;" x1="479.27" x2="698.1035" y1="569" y2="569"/><text fill="#1F2937" font-family="Helvetica" font-size="13" lengthAdjust="spacing" textLength="94.6563" x="539.3586" y="564.0103">rejected(reason)</text></g><g class="message" data-entity-1="part4" data-entity-2="part3" id="msg16"><polygon fill="#181818" points="318.2993,592,308.2993,596,318.2993,600,314.2993,596" style="stroke:#181818;stroke-width:1;"/><line style="stroke:#181818;stroke-width:1;stroke-dasharray:2,2;" x1="312.2993" x2="463.27" y1="596" y2="596"/><text fill="#1F2937" font-family="Helvetica" font-size="13" lengthAdjust="spacing" textLength="132.9707" x="319.2993" y="591.0103">402 Payment Required</text></g><g class="message" data-entity-1="part3" data-entity-2="part2" id="msg17"><polygon fill="#181818" points="193.2676,626,183.2676,630,193.2676,634,189.2676,630" style="stroke:#181818;stroke-width:1;"/><line style="stroke:#181818;stroke-width:1;stroke-dasharray:2,2;" x1="187.2676" x2="301.2993" y1="630" y2="630"/><text fill="#1F2937" font-family="Helvetica" font-size="13" lengthAdjust="spacing" textLength="91.0317" x="196.7676" y="625.0103">HTTP response</text></g><g class="message" data-entity-1="part2" data-entity-2="part1" id="msg18"><polygon fill="#181818" points="49.3413,653,39.3413,657,49.3413,661,45.3413,657" style="stroke:#181818;stroke-width:1;"/><line style="stroke:#181818;stroke-width:1;stroke-dasharray:2,2;" x1="43.3413" x2="181.2676" y1="657" y2="657"/><text fill="#1F2937" font-family="Helvetica" font-size="13" lengthAdjust="spacing" textLength="119.9263" x="50.3413" y="652.0103">Confirmation or error</text></g></g></svg>