<?plantuml 1.2026.2?><svg xmlns="http://www.w3.org/2000/svg" xmlns:xlink="http://www.w3.org/1999/xlink" contentStyleType="text/css" data-diagram-type="SEQUENCE" height="1037.5px" preserveAspectRatio="none" style="width:1023px;height:1037px;" version="1.1" viewBox="0 0 1023 1037" width="1023.9583px" zoomAndPan="magnify"><title>Document Analysis With Async Worker</title><defs><linearGradient id="g6xgk681owvfw0" x1="50%" x2="50%" y1="0%" y2="100%"><stop offset="0%" stop-color="#B8B8B8"/><stop offset="100%" stop-color="#999999"/></linearGradient><linearGradient id="g6xgk681owvfw1" x1="50%" x2="50%" y1="0%" y2="100%"><stop offset="0%" stop-color="#6B6B6B"/><stop offset="100%" stop-color="#6B6B6B"/></linearGradient><linearGradient id="g6xgk681owvfw2" x1="50%" x2="50%" y1="0%" y2="100%"><stop offset="0%" stop-color="#B8B8B8"/><stop offset="100%" stop-color="#6B6B6B"/></linearGradient><linearGradient id="g6xgk681owvfw3" x1="50%" x2="50%" y1="0%" y2="100%"><stop offset="0%" stop-color="#7C9AB9"/><stop offset="100%" stop-color="#304D6D"/></linearGradient></defs><g><rect fill="url(#g6xgk681owvfw0)" height="48.2361" rx="4.1667" ry="4.1667" style="stroke:#6B6B6B;stroke-width:1.0417;" width="478.2491" x="276.8346" y="20.8333"/><text fill="#304D6D" font-family="'Verdana'" font-size="20.8333" font-weight="bold" lengthAdjust="spacing" textLength="455.3324" x="288.2929" y="53.2369">Document Analysis With Async Worker</text><g><title>API Service</title><rect fill="url(#g6xgk681owvfw1)" height="80.3833" style="stroke:#304D6D;stroke-width:1.0417;" width="10.4167" x="400.411" y="252.1444"/></g><g><title>API Service</title><rect fill="url(#g6xgk681owvfw1)" height="120.575" style="stroke:#304D6D;stroke-width:1.0417;" width="10.4167" x="400.411" y="799.8108"/></g><g><title>Analysis Worker</title><rect fill="url(#g6xgk681owvfw1)" height="587.8581" style="stroke:#304D6D;stroke-width:1.0417;" width="10.4167" x="713.3057" y="180.0944"/></g><rect fill="url(#g6xgk681owvfw2)" height="77.8666" rx="4.1667" ry="4.1667" style="stroke:#446E9B;stroke-width:1.0417;" width="337.9354" x="495.7113" y="348.1527"/><rect fill="url(#g6xgk681owvfw2)" height="226.1332" rx="4.1667" ry="4.1667" style="stroke:#446E9B;stroke-width:1.0417;" width="516.4154" x="495.7113" y="534.5276"/><path d="M495.7113,652.5859 L1012.1267,652.5859 L1012.1267,756.4941 A4.1667,4.1667 0 0 1 1007.96,760.6608 L499.8779,760.6608 A4.1667,4.1667 0 0 1 495.7113,756.4941 L495.7113,652.5859" fill="url(#g6xgk681owvfw2)" style="stroke:none;stroke-width:1.0417;"/><g class="participant-lifeline" data-entity-uid="part1" data-qualified-name="Analyst" id="part1-lifeline"><g><title>Analyst</title><rect fill="#000000" fill-opacity="0.00000" height="769.458" width="8.3333" x="42.9057" y="169.6777"/><line style="stroke:#999999;stroke-width:1.0417;stroke-dasharray:5.2083,5.2083;" x1="46.875" x2="46.875" y1="169.6777" y2="939.1357"/></g></g><g class="participant-lifeline" data-entity-uid="part2" data-qualified-name="UI" id="part2-lifeline"><g><title>Console UI</title><rect fill="#000000" fill-opacity="0.00000" height="769.458" width="8.3333" x="188.2039" y="169.6777"/><line style="stroke:#999999;stroke-width:1.0417;stroke-dasharray:5.2083,5.2083;" x1="191.7013" x2="191.7013" y1="169.6777" y2="939.1357"/></g></g><g class="participant-lifeline" data-entity-uid="part3" data-qualified-name="API" id="part3-lifeline"><g><title>API Service</title><rect fill="#000000" fill-opacity="0.00000" height="769.458" width="8.3333" x="401.4526" y="169.6777"/><line style="stroke:#999999;stroke-width:1.0417;stroke-dasharray:5.2083,5.2083;" x1="405.1107" x2="405.1107" y1="169.6777" y2="939.1357"/></g></g><g class="participant-lifeline" data-entity-uid="part4" data-qualified-name="Queue" id="part4-lifeline"><g><title>Job Queue</title><rect fill="#000000" fill-opacity="0.00000" height="769.458" width="8.3333" x="550.588" y="169.6777"/><line style="stroke:#999999;stroke-width:1.0417;stroke-dasharray:5.2083,5.2083;" x1="554.0446" x2="554.0446" y1="169.6777" y2="939.1357"/></g></g><g class="participant-lifeline" data-entity-uid="part5" data-qualified-name="Worker" id="part5-lifeline"><g><title>Analysis Worker</title><rect fill="#000000" fill-opacity="0.00000" height="769.458" width="8.3333" x="714.3473" y="169.6777"/><line style="stroke:#999999;stroke-width:1.0417;stroke-dasharray:5.2083,5.2083;" x1="717.9647" x2="717.9647" y1="169.6777" y2="939.1357"/></g></g><g class="participant-lifeline" data-entity-uid="part6" data-qualified-name="Store" id="part6-lifeline"><g><title>Results Store</title><rect fill="#000000" fill-opacity="0.00000" height="769.458" width="8.3333" x="947.3796" y="169.6777"/><line style="stroke:#999999;stroke-width:1.0417;stroke-dasharray:5.2083,5.2083;" x1="951.3824" x2="951.3824" y1="169.6777" y2="939.1357"/></g></g><g class="participant participant-head" data-entity-uid="part1" data-qualified-name="Analyst" id="part1-head"><text fill="#FFFFFF" font-family="'Verdana'" font-size="12.5" lengthAdjust="spacing" textLength="46.228" x="20.8333" y="161.8449">Analyst</text><ellipse cx="47.0723" cy="89.9028" fill="url(#g6xgk681owvfw3)" rx="8.3333" ry="8.3333" style="stroke:#304D6D;stroke-width:1.0417;"/><path d="M47.0723,98.2361 L47.0723,126.3611 M33.5307,106.5694 L60.614,106.5694 M47.0723,126.3611 L33.5307,141.9861 M47.0723,126.3611 L60.614,141.9861" fill="none" style="stroke:#304D6D;stroke-width:1.0417;"/></g><g class="participant participant-tail" data-entity-uid="part1" data-qualified-name="Analyst" id="part1-tail"><text fill="#FFFFFF" font-family="'Verdana'" font-size="12.5" lengthAdjust="spacing" textLength="46.228" x="20.8333" y="955.8695">Analyst</text><ellipse cx="47.0723" cy="973.0774" fill="url(#g6xgk681owvfw3)" rx="8.3333" ry="8.3333" style="stroke:#304D6D;stroke-width:1.0417;"/><path d="M47.0723,981.4107 L47.0723,1009.5357 M33.5307,989.7441 L60.614,989.7441 M47.0723,1009.5357 L33.5307,1025.1607 M47.0723,1009.5357 L60.614,1025.1607" fill="none" style="stroke:#304D6D;stroke-width:1.0417;"/></g><g class="participant participant-head" data-entity-uid="part2" data-qualified-name="UI" id="part2-head"><rect fill="url(#g6xgk681owvfw3)" height="40.1917" rx="4.1667" ry="4.1667" style="stroke:#304D6D;stroke-width:1.0417;" width="93.0054" x="145.8679" y="128.4444"/><text fill="#FFFFFF" font-family="'Verdana'" font-size="12.5" lengthAdjust="spacing" textLength="68.0054" x="158.3679" y="153.5116">Console UI</text></g><g class="participant participant-tail" data-entity-uid="part2" data-qualified-name="UI" id="part2-tail"><rect fill="url(#g6xgk681owvfw3)" height="40.1917" rx="4.1667" ry="4.1667" style="stroke:#304D6D;stroke-width:1.0417;" width="93.0054" x="145.8679" y="938.0941"/><text fill="#FFFFFF" font-family="'Verdana'" font-size="12.5" lengthAdjust="spacing" textLength="68.0054" x="158.3679" y="963.1612">Console UI</text></g><g class="participant participant-head" data-entity-uid="part3" data-qualified-name="API" id="part3-head"><rect fill="url(#g6xgk681owvfw3)" height="40.1917" rx="4.1667" ry="4.1667" style="stroke:#304D6D;stroke-width:1.0417;" width="96.8506" x="357.194" y="128.4444"/><text fill="#FFFFFF" font-family="'Verdana'" font-size="12.5" lengthAdjust="spacing" textLength="71.8506" x="369.694" y="153.5116">API Service</text></g><g class="participant participant-tail" data-entity-uid="part3" data-qualified-name="API" id="part3-tail"><rect fill="url(#g6xgk681owvfw3)" height="40.1917" rx="4.1667" ry="4.1667" style="stroke:#304D6D;stroke-width:1.0417;" width="96.8506" x="357.194" y="938.0941"/><text fill="#FFFFFF" font-family="'Verdana'" font-size="12.5" lengthAdjust="spacing" textLength="71.8506" x="369.694" y="963.1612">API Service</text></g><g class="participant participant-head" data-entity-uid="part4" data-qualified-name="Queue" id="part4-head"><path d="M511.3363,133.6528 L598.173,133.6528 C603.3813,133.6528 603.3813,151.6652 603.3813,151.6652 C603.3813,151.6652 603.3813,169.6777 598.173,169.6777 L511.3363,169.6777 C506.1279,169.6777 506.1279,151.6652 506.1279,151.6652 C506.1279,151.6652 506.1279,133.6528 511.3363,133.6528" fill="url(#g6xgk681owvfw3)" style="stroke:#304D6D;stroke-width:1.0417;"/><path d="M598.173,133.6528 C592.9647,133.6528 592.9647,151.6652 592.9647,151.6652 C592.9647,169.6777 598.173,169.6777 598.173,169.6777" fill="none" style="stroke:#304D6D;stroke-width:1.0417;"/><text fill="#FFFFFF" font-family="'Verdana'" font-size="12.5" lengthAdjust="spacing" textLength="66.0034" x="516.5446" y="156.6366">Job Queue</text></g><g class="participant participant-tail" data-entity-uid="part4" data-qualified-name="Queue" id="part4-tail"><path d="M511.3363,938.0941 L598.173,938.0941 C603.3813,938.0941 603.3813,956.1066 603.3813,956.1066 C603.3813,956.1066 603.3813,974.1191 598.173,974.1191 L511.3363,974.1191 C506.1279,974.1191 506.1279,956.1066 506.1279,956.1066 C506.1279,956.1066 506.1279,938.0941 511.3363,938.0941" fill="url(#g6xgk681owvfw3)" style="stroke:#304D6D;stroke-width:1.0417;"/><path d="M598.173,938.0941 C592.9647,938.0941 592.9647,956.1066 592.9647,956.1066 C592.9647,974.1191 598.173,974.1191 598.173,974.1191" fill="none" style="stroke:#304D6D;stroke-width:1.0417;"/><text fill="#FFFFFF" font-family="'Verdana'" font-size="12.5" lengthAdjust="spacing" textLength="66.0034" x="516.5446" y="961.0779">Job Queue</text></g><g class="participant participant-head" data-entity-uid="part5" data-qualified-name="Worker" id="part5-head"><rect fill="url(#g6xgk681owvfw3)" height="40.1917" rx="4.1667" ry="4.1667" style="stroke:#304D6D;stroke-width:1.0417;" width="126.0986" x="655.4647" y="128.4444"/><text fill="#FFFFFF" font-family="'Verdana'" font-size="12.5" lengthAdjust="spacing" textLength="101.0986" x="667.9647" y="153.5116">Analysis Worker</text></g><g class="participant participant-tail" data-entity-uid="part5" data-qualified-name="Worker" id="part5-tail"><rect fill="url(#g6xgk681owvfw3)" height="40.1917" rx="4.1667" ry="4.1667" style="stroke:#304D6D;stroke-width:1.0417;" width="126.0986" x="655.4647" y="938.0941"/><text fill="#FFFFFF" font-family="'Verdana'" font-size="12.5" lengthAdjust="spacing" textLength="101.0986" x="667.9647" y="963.1612">Analysis Worker</text></g><g class="participant participant-head" data-entity-uid="part6" data-qualified-name="Store" id="part6-head"><text fill="#FFFFFF" font-family="'Verdana'" font-size="12.5" lengthAdjust="spacing" textLength="83.6609" x="906.5908" y="161.8449">Results Store</text><path d="M932.7962,106.5694 C932.7962,96.1528 951.5462,96.1528 951.5462,96.1528 C951.5462,96.1528 970.2962,96.1528 970.2962,106.5694 L970.2962,133.6528 C970.2962,144.0694 951.5462,144.0694 951.5462,144.0694 C951.5462,144.0694 932.7962,144.0694 932.7962,133.6528 L932.7962,106.5694" fill="url(#g6xgk681owvfw3)" style="stroke:#304D6D;stroke-width:1.0417;"/><path d="M932.7962,106.5694 C932.7962,116.9861 951.5462,116.9861 951.5462,116.9861 C951.5462,116.9861 970.2962,116.9861 970.2962,106.5694" fill="none" style="stroke:#304D6D;stroke-width:1.0417;"/></g><g class="participant participant-tail" data-entity-uid="part6" data-qualified-name="Store" id="part6-tail"><text fill="#FFFFFF" font-family="'Verdana'" font-size="12.5" lengthAdjust="spacing" textLength="83.6609" x="906.5908" y="955.8695">Results Store</text><path d="M932.7962,974.1191 C932.7962,963.7024 951.5462,963.7024 951.5462,963.7024 C951.5462,963.7024 970.2962,963.7024 970.2962,974.1191 L970.2962,1001.2024 C970.2962,1011.6191 951.5462,1011.6191 951.5462,1011.6191 C951.5462,1011.6191 932.7962,1011.6191 932.7962,1001.2024 L932.7962,974.1191" fill="url(#g6xgk681owvfw3)" style="stroke:#304D6D;stroke-width:1.0417;"/><path d="M932.7962,974.1191 C932.7962,984.5357 951.5462,984.5357 951.5462,984.5357 C951.5462,984.5357 970.2962,984.5357 970.2962,974.1191" fill="none" style="stroke:#304D6D;stroke-width:1.0417;"/></g><g><title>API Service</title><rect fill="url(#g6xgk681owvfw1)" height="80.3833" style="stroke:#304D6D;stroke-width:1.0417;" width="10.4167" x="400.411" y="252.1444"/></g><g><title>API Service</title><rect fill="url(#g6xgk681owvfw1)" height="120.575" style="stroke:#304D6D;stroke-width:1.0417;" width="10.4167" x="400.411" y="799.8108"/></g><g><title>Analysis Worker</title><rect fill="url(#g6xgk681owvfw1)" height="587.8581" style="stroke:#304D6D;stroke-width:1.0417;" width="10.4167" x="713.3057" y="180.0944"/></g><g class="message" data-entity-1="part1" data-entity-2="part2" id="msg1"><polygon fill="#446E9B" points="179.8706,207.7861,190.2873,211.9527,179.8706,216.1194,184.0373,211.9527" style="stroke:#446E9B;stroke-width:1.0417;"/><line style="stroke:#446E9B;stroke-width:3.125;" x1="47.0723" x2="186.1206" y1="211.9527" y2="211.9527"/><text fill="#FFFFFF" font-family="'Verdana'" font-size="12.5" lengthAdjust="spacing" textLength="109.8816" x="59.5723" y="202.0365">Upload document</text></g><g class="message" data-entity-1="part2" data-entity-2="part3" id="msg2"><polygon fill="#446E9B" points="387.911,247.9777,398.3276,252.1444,387.911,256.311,392.0776,252.1444" style="stroke:#446E9B;stroke-width:1.0417;"/><line style="stroke:#446E9B;stroke-width:3.125;" x1="192.3706" x2="394.161" y1="252.1444" y2="252.1444"/><text fill="#FFFFFF" font-family="'Verdana'" font-size="12.5" lengthAdjust="spacing" textLength="125.769" x="204.8706" y="242.2282">POST /analysis-jobs</text></g><g class="message" data-entity-1="part3" data-entity-2="part4" id="msg3"><polygon fill="#446E9B" points="542.2546,288.1694,552.6713,292.336,542.2546,296.5027,546.4213,292.336" style="stroke:#446E9B;stroke-width:1.0417;"/><line style="stroke:#446E9B;stroke-width:3.125;" x1="410.8276" x2="548.5046" y1="292.336" y2="292.336"/><text fill="#FFFFFF" font-family="'Verdana'" font-size="12.5" lengthAdjust="spacing" textLength="84.8877" x="423.3276" y="282.4198">enqueue(job)</text></g><g class="message" data-entity-1="part3" data-entity-2="part2" id="msg4"><polygon fill="#446E9B" points="203.8289,328.361,193.4123,332.5277,203.8289,336.6943,199.6623,332.5277" style="stroke:#446E9B;stroke-width:1.0417;"/><line style="stroke:#446E9B;stroke-width:3.125;stroke-dasharray:2.0833,2.0833;" x1="197.5789" x2="404.5776" y1="332.5277" y2="332.5277"/><text fill="#FFFFFF" font-family="'Verdana'" font-size="12.5" lengthAdjust="spacing" textLength="143.0603" x="215.2873" y="322.6115">202 Accepted + job_id</text></g><path d="M499.8779,348.1527 L583.1787,348.1527 L583.1787,365.4277 L572.762,375.8443 L495.7113,375.8443 L495.7113,352.3193 A4.1667,4.1667 0 0 1 499.8779,348.1527" fill="url(#g6xgk681owvfw1)" style="stroke:#333333;stroke-width:1.0417;"/><rect fill="none" height="77.8666" rx="4.1667" ry="4.1667" style="stroke:#446E9B;stroke-width:1.0417;" width="337.9354" x="495.7113" y="348.1527"/><text fill="#3399F3" font-family="'Verdana'" font-size="12.5" font-weight="bold" lengthAdjust="spacing" textLength="30.1758" x="516.5446" y="366.9698">loop</text><text fill="#333333" font-family="'Verdana'" font-size="12.5" font-weight="bold" lengthAdjust="spacing" textLength="166.9189" x="604.012" y="368.0115">[until worker picks job]</text><g class="message" data-entity-1="part4" data-entity-2="part5" id="msg5"><polygon fill="#446E9B" points="700.8057,413.5193,711.2223,417.686,700.8057,421.8526,704.9723,417.686" style="stroke:#446E9B;stroke-width:1.0417;"/><line style="stroke:#446E9B;stroke-width:3.125;" x1="554.7546" x2="707.0557" y1="417.686" y2="417.686"/><text fill="#FFFFFF" font-family="'Verdana'" font-size="12.5" lengthAdjust="spacing" textLength="73.3032" x="567.2546" y="407.7698">deliver(job)</text></g><g class="message" data-entity-1="part5" data-entity-2="part6" id="msg6"><polygon fill="#446E9B" points="939.0462,461.0026,949.4629,465.1693,939.0462,469.3359,943.2129,465.1693" style="stroke:#446E9B;stroke-width:1.0417;"/><line style="stroke:#446E9B;stroke-width:3.125;" x1="723.7223" x2="945.2962" y1="465.1693" y2="465.1693"/><text fill="#FFFFFF" font-family="'Verdana'" font-size="12.5" lengthAdjust="spacing" textLength="134.1431" x="736.2223" y="455.2531">markRunning(job_id)</text></g><g class="message" data-entity-1="part5" data-entity-2="part5" id="msg7"><line style="stroke:#446E9B;stroke-width:3.125;" x1="723.7223" x2="767.4723" y1="505.3609" y2="505.3609"/><line style="stroke:#446E9B;stroke-width:3.125;" x1="767.4723" x2="767.4723" y1="505.3609" y2="518.9026"/><line style="stroke:#446E9B;stroke-width:3.125;" x1="724.764" x2="767.4723" y1="518.9026" y2="518.9026"/><polygon fill="#446E9B" points="735.1807,514.7359,724.764,518.9026,735.1807,523.0693,731.014,518.9026" style="stroke:#446E9B;stroke-width:1.0417;"/><text fill="#FFFFFF" font-family="'Verdana'" font-size="12.5" lengthAdjust="spacing" textLength="178.9124" x="736.2223" y="495.4447">parse and classify document</text></g><path d="M499.8779,534.5276 L571.3196,534.5276 L571.3196,551.8026 L560.9029,562.2192 L495.7113,562.2192 L495.7113,538.6943 A4.1667,4.1667 0 0 1 499.8779,534.5276" fill="url(#g6xgk681owvfw1)" style="stroke:#333333;stroke-width:1.0417;"/><rect fill="none" height="226.1332" rx="4.1667" ry="4.1667" style="stroke:#446E9B;stroke-width:1.0417;" width="516.4154" x="495.7113" y="534.5276"/><text fill="#3399F3" font-family="'Verdana'" font-size="12.5" font-weight="bold" lengthAdjust="spacing" textLength="18.3167" x="516.5446" y="553.3447">alt</text><text fill="#333333" font-family="'Verdana'" font-size="12.5" font-weight="bold" lengthAdjust="spacing" textLength="147.5952" x="592.1529" y="554.3864">[analysis successful]</text><g class="message" data-entity-1="part5" data-entity-2="part6" id="msg8"><polygon fill="#446E9B" points="939.0462,599.8942,949.4629,604.0609,939.0462,608.2275,943.2129,604.0609" style="stroke:#446E9B;stroke-width:1.0417;"/><line style="stroke:#446E9B;stroke-width:3.125;" x1="723.7223" x2="945.2962" y1="604.0609" y2="604.0609"/><text fill="#FFFFFF" font-family="'Verdana'" font-size="12.5" lengthAdjust="spacing" textLength="192.4072" x="736.2223" y="594.1447">saveResults(job_id, summary)</text></g><g class="message" data-entity-1="part5" data-entity-2="part4" id="msg9"><polygon fill="#446E9B" points="566.213,640.0859,555.7963,644.2525,566.213,648.4192,562.0463,644.2525" style="stroke:#446E9B;stroke-width:1.0417;"/><line style="stroke:#446E9B;stroke-width:3.125;stroke-dasharray:2.0833,2.0833;" x1="559.963" x2="712.264" y1="644.2525" y2="644.2525"/><text fill="#FFFFFF" font-family="'Verdana'" font-size="12.5" lengthAdjust="spacing" textLength="21.4172" x="577.6713" y="634.3363">ack</text></g><line style="stroke:#446E9B;stroke-width:1.0417;stroke-dasharray:2.0833,2.0833;" x1="495.7113" x2="1012.1267" y1="653.6275" y2="653.6275"/><text fill="#333333" font-family="'Verdana'" font-size="12.5" font-weight="bold" lengthAdjust="spacing" textLength="109.7107" x="506.1279" y="671.403">[parsing failed]</text><g class="message" data-entity-1="part5" data-entity-2="part6" id="msg10"><polygon fill="#446E9B" points="939.0462,707.9692,949.4629,712.1358,939.0462,716.3025,943.2129,712.1358" style="stroke:#446E9B;stroke-width:1.0417;"/><line style="stroke:#446E9B;stroke-width:3.125;" x1="723.7223" x2="945.2962" y1="712.1358" y2="712.1358"/><text fill="#FFFFFF" font-family="'Verdana'" font-size="12.5" lengthAdjust="spacing" textLength="161.2793" x="736.2223" y="702.2196">saveFailure(job_id, error)</text></g><g class="message" data-entity-1="part5" data-entity-2="part4" id="msg11"><polygon fill="#446E9B" points="566.213,748.1608,555.7963,752.3275,566.213,756.4941,562.0463,752.3275" style="stroke:#446E9B;stroke-width:1.0417;"/><line style="stroke:#446E9B;stroke-width:3.125;stroke-dasharray:2.0833,2.0833;" x1="559.963" x2="712.264" y1="752.3275" y2="752.3275"/><text fill="#FFFFFF" font-family="'Verdana'" font-size="12.5" lengthAdjust="spacing" textLength="21.4172" x="577.6713" y="742.4113">ack</text></g><g class="message" data-entity-1="part2" data-entity-2="part3" id="msg12"><polygon fill="#446E9B" points="387.911,795.6441,398.3276,799.8108,387.911,803.9775,392.0776,799.8108" style="stroke:#446E9B;stroke-width:1.0417;"/><line style="stroke:#446E9B;stroke-width:3.125;" x1="192.3706" x2="394.161" y1="799.8108" y2="799.8108"/><text fill="#FFFFFF" font-family="'Verdana'" font-size="12.5" lengthAdjust="spacing" textLength="177.832" x="204.8706" y="789.8946">GET /analysis-jobs/{job_id}</text></g><g class="message" data-entity-1="part3" data-entity-2="part6" id="msg13"><polygon fill="#446E9B" points="939.0462,835.8358,949.4629,840.0024,939.0462,844.1691,943.2129,840.0024" style="stroke:#446E9B;stroke-width:1.0417;"/><line style="stroke:#446E9B;stroke-width:3.125;" x1="410.8276" x2="945.2962" y1="840.0024" y2="840.0024"/><text fill="#FFFFFF" font-family="'Verdana'" font-size="12.5" lengthAdjust="spacing" textLength="121.7102" x="423.3276" y="830.0863">fetchStatus(job_id)</text></g><g class="message" data-entity-1="part6" data-entity-2="part3" id="msg14"><polygon fill="#446E9B" points="422.286,876.0274,411.8693,880.1941,422.286,884.3608,418.1193,880.1941" style="stroke:#446E9B;stroke-width:1.0417;"/><line style="stroke:#446E9B;stroke-width:3.125;stroke-dasharray:2.0833,2.0833;" x1="416.036" x2="950.5046" y1="880.1941" y2="880.1941"/><text fill="#FFFFFF" font-family="'Verdana'" font-size="12.5" lengthAdjust="spacing" textLength="92.8711" x="433.7443" y="870.2779">status + result</text></g><g class="message" data-entity-1="part3" data-entity-2="part2" id="msg15"><polygon fill="#446E9B" points="203.8289,916.2191,193.4123,920.3857,203.8289,924.5524,199.6623,920.3857" style="stroke:#446E9B;stroke-width:1.0417;"/><line style="stroke:#446E9B;stroke-width:3.125;stroke-dasharray:2.0833,2.0833;" x1="197.5789" x2="404.5776" y1="920.3857" y2="920.3857"/><text fill="#FFFFFF" font-family="'Verdana'" font-size="12.5" lengthAdjust="spacing" textLength="46.7346" x="215.2873" y="910.4696">200 OK</text></g></g></svg>